<?xml version="1.0" encoding="UTF-8"?>
<!DOCTYPE svg PUBLIC "-//W3C//DTD SVG 1.1//EN" "http://www.w3.org/Graphics/SVG/1.1/DTD/svg11.dtd">
<svg xmlns="http://www.w3.org/2000/svg" version="1.1" width="500px" height="500px" style="shape-rendering:geometricPrecision; text-rendering:geometricPrecision; image-rendering:optimizeQuality; fill-rule:evenodd; clip-rule:evenodd" xmlns:xlink="http://www.w3.org/1999/xlink">
<g><path style="opacity:1" fill="#fefefe" d="M -0.5,-0.5 C 166.167,-0.5 332.833,-0.5 499.5,-0.5C 499.5,82.5 499.5,165.5 499.5,248.5C 493.478,155.928 450.478,86.4276 370.5,40C 305.822,7.27941 239.156,2.61274 170.5,26C 84.4958,61.1512 32.3291,124.318 14,215.5C 3.47271,296.573 25.806,366.907 81,426.5C 132.893,477.529 195.393,501.529 268.5,498.5C 268.5,498.833 268.5,499.167 268.5,499.5C 178.833,499.5 89.1667,499.5 -0.5,499.5C -0.5,332.833 -0.5,166.167 -0.5,-0.5 Z"/></g>
<g><path style="opacity:1" fill="#80c343" d="M 499.5,248.5 C 499.5,255.167 499.5,261.833 499.5,268.5C 498.421,282.207 496.254,295.874 493,309.5C 485.191,318.548 475.358,322.048 463.5,320C 455.151,316.321 449.651,310.154 447,301.5C 458.823,237.124 444.489,179.458 404,128.5C 358.122,77.8273 300.955,55.3273 232.5,61C 154.417,73.4468 100.584,116.28 71,189.5C 66.6794,203.779 63.1794,218.112 60.5,232.5C 53.0205,227.589 45.6872,222.422 38.5,217C 31.6248,216.552 29.1248,219.718 31,226.5C 39.8937,234.562 49.7271,241.228 60.5,246.5C 60.5,254.5 60.5,262.5 60.5,270.5C 55.0387,272.982 49.7054,275.649 44.5,278.5C 42.4571,283.748 44.1238,287.081 49.5,288.5C 53.715,287.721 57.715,286.388 61.5,284.5C 76.0398,360.417 119.373,412.25 191.5,440C 254.199,459.331 312.866,450.997 367.5,415C 369.995,410.005 373.662,406.172 378.5,403.5C 391.316,409.326 403.649,415.992 415.5,423.5C 415.983,430.217 414.15,436.217 410,441.5C 398.131,453.373 384.631,463.206 369.5,471C 337.731,487.202 304.065,496.368 268.5,498.5C 195.393,501.529 132.893,477.529 81,426.5C 25.806,366.907 3.47271,296.573 14,215.5C 32.3291,124.318 84.4958,61.1512 170.5,26C 239.156,2.61274 305.822,7.27941 370.5,40C 450.478,86.4276 493.478,155.928 499.5,248.5 Z"/></g>
<g><path style="opacity:1" fill="#fefefe" d="M 499.5,268.5 C 499.5,345.5 499.5,422.5 499.5,499.5C 422.5,499.5 345.5,499.5 268.5,499.5C 268.5,499.167 268.5,498.833 268.5,498.5C 304.065,496.368 337.731,487.202 369.5,471C 384.631,463.206 398.131,453.373 410,441.5C 414.15,436.217 415.983,430.217 415.5,423.5C 416.615,396.574 418.782,369.574 422,342.5C 425.672,316.798 429.672,291.131 434,265.5C 437.786,237.641 431.12,212.641 414,190.5C 382.339,150.61 341.505,136.11 291.5,147C 242.02,164.788 216.02,199.954 213.5,252.5C 213.583,287.821 226.583,317.321 252.5,341C 259.332,345.584 266.332,349.917 273.5,354C 308.429,368.297 342.763,383.964 376.5,401C 377.381,401.708 378.047,402.542 378.5,403.5C 373.662,406.172 369.995,410.005 367.5,415C 312.866,450.997 254.199,459.331 191.5,440C 119.373,412.25 76.0398,360.417 61.5,284.5C 76.7512,276.079 88.0846,263.912 95.5,248C 99.5411,247.173 103.541,247.34 107.5,248.5C 103.621,255.862 102.788,263.529 105,271.5C 109.182,275.83 112.349,275.163 114.5,269.5C 112.094,261.334 113.761,254.167 119.5,248C 137.185,245.273 141.685,236.106 133,220.5C 122.495,205.566 108.495,199.9 91,203.5C 90.3131,205.92 90.8131,208.087 92.5,210C 102.488,210.218 111.488,213.218 119.5,219C 120.743,220.154 121.743,221.488 122.5,223C 111.492,224.385 100.492,225.718 89.5,227C 86.5,228.667 84.1667,231 82.5,234C 74.8092,237.569 67.4758,237.069 60.5,232.5C 63.1794,218.112 66.6794,203.779 71,189.5C 100.584,116.28 154.417,73.4468 232.5,61C 300.955,55.3273 358.122,77.8273 404,128.5C 444.489,179.458 458.823,237.124 447,301.5C 449.651,310.154 455.151,316.321 463.5,320C 475.358,322.048 485.191,318.548 493,309.5C 496.254,295.874 498.421,282.207 499.5,268.5 Z"/></g>
<g><path style="opacity:1" fill="#d6d4d4" d="M 415.5,423.5 C 403.649,415.992 391.316,409.326 378.5,403.5C 378.047,402.542 377.381,401.708 376.5,401C 342.763,383.964 308.429,368.297 273.5,354C 266.332,349.917 259.332,345.584 252.5,341C 226.583,317.321 213.583,287.821 213.5,252.5C 216.02,199.954 242.02,164.788 291.5,147C 341.505,136.11 382.339,150.61 414,190.5C 431.12,212.641 437.786,237.641 434,265.5C 429.672,291.131 425.672,316.798 422,342.5C 418.782,369.574 416.615,396.574 415.5,423.5 Z"/></g>
<g><path style="opacity:1" fill="#f599d1" d="M 61.5,284.5 C 57.715,286.388 53.715,287.721 49.5,288.5C 44.1238,287.081 42.4571,283.748 44.5,278.5C 49.7054,275.649 55.0387,272.982 60.5,270.5C 69.0451,264.454 76.0451,256.954 81.5,248C 74.3871,249.035 67.3871,248.535 60.5,246.5C 49.7271,241.228 39.8937,234.562 31,226.5C 29.1248,219.718 31.6248,216.552 38.5,217C 45.6872,222.422 53.0205,227.589 60.5,232.5C 67.4758,237.069 74.8092,237.569 82.5,234C 84.1667,231 86.5,228.667 89.5,227C 100.492,225.718 111.492,224.385 122.5,223C 121.743,221.488 120.743,220.154 119.5,219C 111.488,213.218 102.488,210.218 92.5,210C 90.8131,208.087 90.3131,205.92 91,203.5C 108.495,199.9 122.495,205.566 133,220.5C 141.685,236.106 137.185,245.273 119.5,248C 113.761,254.167 112.094,261.334 114.5,269.5C 112.349,275.163 109.182,275.83 105,271.5C 102.788,263.529 103.621,255.862 107.5,248.5C 103.541,247.34 99.5411,247.173 95.5,248C 88.0846,263.912 76.7512,276.079 61.5,284.5 Z"/></g>
<g><path style="opacity:1" fill="#fefefe" d="M 314.5,214.5 C 341.534,212.056 359.034,223.723 367,249.5C 369.441,272.797 359.941,288.964 338.5,298C 308.588,303.076 290.088,290.909 283,261.5C 282.04,238.072 292.54,222.405 314.5,214.5 Z"/></g>
<g><path style="opacity:1" fill="#f699d2" d="M 149.5,224.5 C 162.822,222.657 168.656,228.324 167,241.5C 160.807,250.813 153.474,251.813 145,244.5C 140.67,236.421 142.17,229.754 149.5,224.5 Z"/></g>
<g><path style="opacity:1" fill="#fefcfd" d="M 60.5,246.5 C 67.3871,248.535 74.3871,249.035 81.5,248C 76.0451,256.954 69.0451,264.454 60.5,270.5C 60.5,262.5 60.5,254.5 60.5,246.5 Z"/></g>
</svg>
