<?xml version="1.0" encoding="UTF-8"?>
<!DOCTYPE svg PUBLIC "-//W3C//DTD SVG 1.1//EN" "http://www.w3.org/Graphics/SVG/1.1/DTD/svg11.dtd">
<svg xmlns="http://www.w3.org/2000/svg" version="1.1" width="500px" height="500px" style="shape-rendering:geometricPrecision; text-rendering:geometricPrecision; image-rendering:optimizeQuality; fill-rule:evenodd; clip-rule:evenodd" xmlns:xlink="http://www.w3.org/1999/xlink">
<g><path style="opacity:1" fill="#81c344" d="M 228.5,-0.5 C 242.5,-0.5 256.5,-0.5 270.5,-0.5C 367.503,11.4058 437.003,61.4058 479,149.5C 490.235,176.203 497.069,203.87 499.5,232.5C 499.5,244.833 499.5,257.167 499.5,269.5C 497.934,280.345 496.434,291.345 495,302.5C 492.719,311.122 487.219,316.955 478.5,320C 460.904,322.873 449.904,315.706 445.5,298.5C 444.549,299.326 443.549,299.492 442.5,299C 459.264,223.707 440.597,158.707 386.5,104C 330.153,54.4152 265.486,39.0819 192.5,58C 126.561,79.6057 82.0614,123.106 59,188.5C 55.1502,200.916 52.6502,213.582 51.5,226.5C 46.6616,222.915 41.6616,219.582 36.5,216.5C 30.9087,217.651 29.0754,220.984 31,226.5C 37.3283,231.399 43.495,236.399 49.5,241.5C 49.7936,252.531 50.4603,263.531 51.5,274.5C 43.9901,276.02 41.9901,280.186 45.5,287C 48.0782,288.813 50.7449,288.98 53.5,287.5C 72.0586,367.56 120.725,419.393 199.5,443C 265.74,457.757 325.074,444.59 377.5,403.5C 381.105,403.799 384.439,404.965 387.5,407C 396.5,412.167 405.5,417.333 414.5,422.5C 415.466,424.396 415.799,426.396 415.5,428.5C 415.004,435.323 412.004,440.823 406.5,445C 366.273,475.8 320.94,493.967 270.5,499.5C 256.5,499.5 242.5,499.5 228.5,499.5C 150.467,490.896 88.6335,454.896 43,391.5C 18.26,354.444 3.75999,313.778 -0.5,269.5C -0.5,255.167 -0.5,240.833 -0.5,226.5C 8.66861,149.3 44.6686,88.1337 107.5,43C 144.262,18.4689 184.596,3.96885 228.5,-0.5 Z M 49.5,241.5 C 58.9862,247.609 69.3195,250.109 80.5,249C 73.7627,260.908 64.096,269.408 51.5,274.5C 50.4603,263.531 49.7936,252.531 49.5,241.5 Z"/></g>
<g><path style="opacity:1" fill="#d6d4d4" d="M 415.5,428.5 C 415.799,426.396 415.466,424.396 414.5,422.5C 405.5,417.333 396.5,412.167 387.5,407C 384.439,404.965 381.105,403.799 377.5,403.5C 377.063,401.926 376.063,400.759 374.5,400C 340.763,382.964 306.429,367.297 271.5,353C 242.18,337.32 223.68,313.153 216,280.5C 206.338,228.37 223.171,187.536 266.5,158C 312.653,134.529 355.987,138.862 396.5,171C 418.395,190.287 431.229,214.454 435,243.5C 435.475,251.855 435.142,260.189 434,268.5C 428.295,299.689 423.628,331.022 420,362.5C 418.087,384.629 416.587,406.629 415.5,428.5 Z"/></g>
<g><path style="opacity:1" fill="#f69bd3" d="M 53.5,287.5 C 50.7449,288.98 48.0782,288.813 45.5,287C 41.9901,280.186 43.9901,276.02 51.5,274.5C 64.096,269.408 73.7627,260.908 80.5,249C 69.3195,250.109 58.9862,247.609 49.5,241.5C 43.495,236.399 37.3283,231.399 31,226.5C 29.0754,220.984 30.9087,217.651 36.5,216.5C 41.6616,219.582 46.6616,222.915 51.5,226.5C 57.4169,231.957 64.4169,234.957 72.5,235.5C 79.1059,236.136 84.1059,233.636 87.5,228C 89.087,227.138 90.7536,226.471 92.5,226C 102.494,224.94 112.494,223.94 122.5,223C 114.457,214.315 104.457,209.982 92.5,210C 89.0244,204.283 90.6911,201.116 97.5,200.5C 118.601,202.268 132.268,213.268 138.5,233.5C 136.315,242.272 130.648,246.772 121.5,247C 114.786,252.871 112.453,260.204 114.5,269C 113.793,273.691 111.126,275.357 106.5,274C 103.735,269.231 102.902,264.064 104,258.5C 104.373,254.715 105.539,251.215 107.5,248C 103.473,247.669 99.4726,248.002 95.5,249C 86.675,267.563 72.675,280.396 53.5,287.5 Z"/></g>
<g><path style="opacity:1" fill="#fefefe" d="M 314.5,214.5 C 341.534,212.056 359.034,223.723 367,249.5C 369.441,272.797 359.941,288.964 338.5,298C 308.588,303.076 290.088,290.909 283,261.5C 282.04,238.072 292.54,222.405 314.5,214.5 Z"/></g>
<g><path style="opacity:1" fill="#f69bd3" d="M 152.5,223.5 C 166.872,225.255 171.039,232.589 165,245.5C 156.219,251.86 148.886,250.527 143,241.5C 140.69,232.447 143.857,226.447 152.5,223.5 Z"/></g>
</svg>
