<svg xmlns="http://www.w3.org/2000/svg" xmlns:xlink="http://www.w3.org/1999/xlink" width="500" zoomAndPan="magnify" viewBox="0 0 375 374.999991" height="500" preserveAspectRatio="xMidYMid meet" version="1.0"><defs><clipPath id="0aa5f94952"><path d="M 100 86 L 267 86 L 267 298 L 100 298 Z M 100 86 " clip-rule="nonzero"/></clipPath><clipPath id="1d9e68affd"><path d="M 69.601562 136.6875 L 216.328125 56.414062 L 326.117188 257.09375 L 179.390625 337.367188 Z M 69.601562 136.6875 " clip-rule="nonzero"/></clipPath><clipPath id="22de7bfb42"><path d="M 69.601562 136.6875 L 216.328125 56.414062 L 326.117188 257.09375 L 179.390625 337.367188 Z M 69.601562 136.6875 " clip-rule="nonzero"/></clipPath></defs><path fill="#fd5b40" d="M 187.5 0 C 83.90625 0 0 83.90625 0 187.5 C 0 291.09375 83.90625 375 187.5 375 C 291.09375 375 375 291.09375 375 187.5 C 375 83.90625 291.09375 0 187.5 0 Z M 187.5 337.5 C 104.625 337.5 37.5 270.375 37.5 187.5 C 37.5 104.625 104.625 37.5 187.5 37.5 C 270.375 37.5 337.5 104.625 337.5 187.5 C 337.5 270.375 270.375 337.5 187.5 337.5 Z M 187.5 337.5 " fill-opacity="1" fill-rule="nonzero"/><g clip-path="url(#0aa5f94952)"><g clip-path="url(#1d9e68affd)"><g clip-path="url(#22de7bfb42)"><path fill="#fd5b40" d="M 142.882812 96.59375 C 102.582031 118.640625 88.445312 170.390625 111.304688 212.179688 C 134.167969 253.964844 162.332031 242.496094 252.742188 297.398438 C 255.125 191.734375 280.121094 174.144531 257.25 132.335938 C 234.378906 90.527344 183.1875 74.546875 142.882812 96.59375 Z M 199.921875 200.851562 C 198.992188 201.335938 198.042969 201.777344 197.070312 202.167969 C 196.097656 202.558594 195.109375 202.902344 194.101562 203.199219 C 193.097656 203.492188 192.078125 203.738281 191.050781 203.933594 C 190.019531 204.128906 188.980469 204.273438 187.9375 204.367188 C 186.894531 204.460938 185.847656 204.503906 184.800781 204.492188 C 183.75 204.484375 182.707031 204.421875 181.664062 204.3125 C 180.621094 204.199219 179.585938 204.035156 178.558594 203.824219 C 177.535156 203.609375 176.519531 203.347656 175.519531 203.035156 C 174.519531 202.722656 173.535156 202.359375 172.570312 201.953125 C 171.605469 201.542969 170.664062 201.085938 169.742188 200.585938 C 168.824219 200.082031 167.929688 199.539062 167.0625 198.949219 C 166.195312 198.359375 165.359375 197.726562 164.554688 197.054688 C 163.75 196.382812 162.980469 195.675781 162.246094 194.929688 C 161.507812 194.179688 160.8125 193.398438 160.152344 192.585938 C 159.496094 191.769531 158.878906 190.921875 158.300781 190.046875 C 157.726562 189.171875 157.195312 188.269531 156.707031 187.339844 C 156.191406 186.429688 155.71875 185.496094 155.289062 184.539062 C 154.863281 183.582031 154.484375 182.605469 154.15625 181.613281 C 153.824219 180.617188 153.542969 179.609375 153.3125 178.585938 C 153.078125 177.566406 152.898438 176.535156 152.765625 175.496094 C 152.636719 174.457031 152.558594 173.414062 152.527344 172.363281 C 152.5 171.316406 152.523438 170.269531 152.597656 169.226562 C 152.671875 168.179688 152.796875 167.140625 152.972656 166.109375 C 153.148438 165.074219 153.375 164.054688 153.652344 163.042969 C 153.925781 162.03125 154.253906 161.039062 154.625 160.058594 C 155 159.082031 155.421875 158.121094 155.890625 157.183594 C 156.355469 156.246094 156.871094 155.335938 157.425781 154.449219 C 157.984375 153.558594 158.585938 152.703125 159.226562 151.875 C 159.867188 151.046875 160.546875 150.25 161.269531 149.488281 C 161.988281 148.726562 162.742188 148.003906 163.53125 147.316406 C 164.324219 146.628906 165.144531 145.980469 166 145.375 C 166.855469 144.765625 167.734375 144.203125 168.644531 143.683594 C 169.574219 143.199219 170.523438 142.757812 171.496094 142.367188 C 172.46875 141.976562 173.457031 141.632812 174.460938 141.335938 C 175.46875 141.042969 176.484375 140.796875 177.515625 140.601562 C 178.542969 140.40625 179.582031 140.261719 180.625 140.167969 C 181.667969 140.074219 182.714844 140.03125 183.761719 140.039062 C 184.808594 140.050781 185.855469 140.109375 186.894531 140.222656 C 187.9375 140.332031 188.972656 140.496094 189.996094 140.707031 C 191.023438 140.921875 192.035156 141.183594 193.035156 141.496094 C 194.035156 141.808594 195.019531 142.167969 195.984375 142.578125 C 196.949219 142.988281 197.890625 143.441406 198.8125 143.941406 C 199.730469 144.445312 200.625 144.988281 201.492188 145.578125 C 202.359375 146.167969 203.195312 146.796875 204 147.46875 C 204.804688 148.136719 205.574219 148.847656 206.308594 149.59375 C 207.046875 150.339844 207.742188 151.121094 208.402344 151.933594 C 209.058594 152.75 209.675781 153.59375 210.253906 154.46875 C 210.828125 155.34375 211.359375 156.246094 211.847656 157.171875 C 212.367188 158.085938 212.839844 159.019531 213.269531 159.976562 C 213.695312 160.933594 214.074219 161.910156 214.40625 162.902344 C 214.738281 163.898438 215.019531 164.90625 215.253906 165.929688 C 215.484375 166.949219 215.667969 167.980469 215.796875 169.023438 C 215.929688 170.0625 216.011719 171.105469 216.039062 172.152344 C 216.066406 173.203125 216.046875 174.25 215.972656 175.292969 C 215.898438 176.339844 215.773438 177.378906 215.597656 178.414062 C 215.421875 179.445312 215.195312 180.46875 214.917969 181.480469 C 214.644531 182.492188 214.320312 183.484375 213.945312 184.464844 C 213.570312 185.445312 213.148438 186.402344 212.683594 187.339844 C 212.214844 188.28125 211.703125 189.191406 211.144531 190.082031 C 210.585938 190.96875 209.988281 191.828125 209.34375 192.65625 C 208.703125 193.484375 208.023438 194.28125 207.304688 195.042969 C 206.582031 195.804688 205.828125 196.527344 205.035156 197.21875 C 204.246094 197.90625 203.421875 198.550781 202.570312 199.160156 C 201.714844 199.765625 200.832031 200.332031 199.921875 200.851562 Z M 199.921875 200.851562 " fill-opacity="1" fill-rule="nonzero"/></g></g></g></svg>