<?xml version="1.0" encoding="UTF-8"?>
<!DOCTYPE svg PUBLIC "-//W3C//DTD SVG 1.1//EN" "http://www.w3.org/Graphics/SVG/1.1/DTD/svg11.dtd">
<svg xmlns="http://www.w3.org/2000/svg" version="1.1" width="459px" height="100px" style="shape-rendering:geometricPrecision; text-rendering:geometricPrecision; image-rendering:optimizeQuality; fill-rule:evenodd; clip-rule:evenodd" xmlns:xlink="http://www.w3.org/1999/xlink">
<g><path style="opacity:1" fill="#8bc753" d="M 12.5,45.5 C 4.62663,42.6215 3.95997,43.6215 10.5,48.5C 11.4656,50.396 11.7989,52.396 11.5,54.5C 10.5,54.5 9.5,54.5 8.5,54.5C 8.28099,55.675 8.61432,56.675 9.5,57.5C 10.4168,56.8728 11.4168,56.5394 12.5,56.5C 17.7333,78.6208 31.7333,89.4542 54.5,89C 62.0599,88.0477 68.7266,85.2144 74.5,80.5C 77.0046,80.9802 79.3379,81.9802 81.5,83.5C 82.3857,84.325 82.719,85.325 82.5,86.5C 82.4894,88.0174 81.8228,89.1841 80.5,90C 74.2597,94.2374 67.593,97.4041 60.5,99.5C 53.8333,99.5 47.1667,99.5 40.5,99.5C 12.3858,90.5161 -0.44752,71.1828 2,41.5C 8.67605,16.3295 25.0094,2.99617 51,1.5C 76.2395,3.06847 92.2395,16.0685 99,40.5C 99.6667,47.1667 99.6667,53.8333 99,60.5C 96.1625,65.3292 92.8292,65.6625 89,61.5C 91.8673,43.4134 86.0339,28.9134 71.5,18C 49.3774,7.23909 31.2107,11.7391 17,31.5C 14.6317,35.8995 13.1317,40.5662 12.5,45.5 Z M 12.5,49.5 C 13.552,49.3505 14.552,49.5172 15.5,50C 14.2986,50.9025 13.4652,52.0692 13,53.5C 12.51,52.2068 12.3433,50.8734 12.5,49.5 Z"/></g>
<g><path style="opacity:1" fill="#535050" d="M 107.5,27.5 C 110.024,26.1997 112.691,26.1997 115.5,27.5C 118.686,33.2183 122.352,38.5516 126.5,43.5C 130.154,38.2039 133.821,32.8705 137.5,27.5C 140.106,26.3483 142.773,26.1816 145.5,27C 140.21,34.413 135.043,41.913 130,49.5C 129.5,57.1594 129.334,64.8261 129.5,72.5C 127.5,72.5 125.5,72.5 123.5,72.5C 123.666,64.8261 123.5,57.1594 123,49.5C 118.057,41.9247 112.891,34.5914 107.5,27.5 Z"/></g>
<g><path style="opacity:1" fill="#494646" d="M 283.5,37.5 C 283.44,36.9569 283.107,36.6236 282.5,36.5C 281.501,48.1477 281.168,59.8143 281.5,71.5C 279.833,71.5 278.167,71.5 276.5,71.5C 276.5,56.5 276.5,41.5 276.5,26.5C 279.365,26.0548 281.865,26.7215 284,28.5C 292.667,39.1667 301.333,49.8333 310,60.5C 310.5,49.1716 310.667,37.8382 310.5,26.5C 312.5,26.5 314.5,26.5 316.5,26.5C 316.5,41.5 316.5,56.5 316.5,71.5C 314.076,71.8076 311.743,71.4742 309.5,70.5C 300.575,59.6211 291.909,48.6211 283.5,37.5 Z"/></g>
<g><path style="opacity:1" fill="#d6d4d4" d="M 82.5,86.5 C 82.719,85.325 82.3857,84.325 81.5,83.5C 79.3379,81.9802 77.0046,80.9802 74.5,80.5C 65.7772,76.029 57.1105,71.3624 48.5,66.5C 41.5171,57.4151 40.6837,47.7484 46,37.5C 52.2369,29.3091 60.4036,26.4758 70.5,29C 80.9672,32.6015 86.3005,39.9348 86.5,51C 84.7769,62.9374 83.4435,74.7707 82.5,86.5 Z"/></g>
<g><path style="opacity:1" fill="#5a5858" d="M 368.5,30.5 C 368.5,33.8333 368.5,37.1667 368.5,40.5C 371.5,40.5 374.5,40.5 377.5,40.5C 377.5,41.8333 377.5,43.1667 377.5,44.5C 374.833,44.5 372.167,44.5 369.5,44.5C 369.334,51.5079 369.5,58.5079 370,65.5C 372.801,66.7946 375.634,66.7946 378.5,65.5C 379.848,67.6114 379.515,69.4447 377.5,71C 370.613,74.2295 365.779,72.3962 363,65.5C 362.5,58.5079 362.334,51.5079 362.5,44.5C 361.167,44.5 359.833,44.5 358.5,44.5C 358.5,42.8333 358.5,41.1667 358.5,39.5C 359.833,39.5 361.167,39.5 362.5,39.5C 362.335,36.4816 362.502,33.4816 363,30.5C 364.943,29.193 366.777,29.193 368.5,30.5 Z"/></g>
<g><path style="opacity:1" fill="#929191" d="M 283.5,37.5 C 282.505,48.988 282.172,60.6547 282.5,72.5C 280.265,72.7947 278.265,72.4614 276.5,71.5C 278.167,71.5 279.833,71.5 281.5,71.5C 281.168,59.8143 281.501,48.1477 282.5,36.5C 283.107,36.6236 283.44,36.9569 283.5,37.5 Z"/></g>
<g><path style="opacity:1" fill="#575454" d="M 179.5,69.5 C 179.672,70.4916 179.338,71.1583 178.5,71.5C 175.14,72.2096 173.307,70.8762 173,67.5C 167.914,73.1158 162.081,73.9491 155.5,70C 149.787,59.4839 152.787,52.8172 164.5,50C 167.146,49.5026 169.813,49.3359 172.5,49.5C 172.822,47.2776 172.155,45.4443 170.5,44C 165.274,42.8361 160.441,43.6694 156,46.5C 154.833,45.3333 153.667,44.1667 152.5,43C 159.281,37.7088 166.614,36.7088 174.5,40C 176.049,41.214 177.215,42.714 178,44.5C 179.287,52.7805 179.787,61.1139 179.5,69.5 Z M 167.5,54.5 C 169.167,54.5 170.833,54.5 172.5,54.5C 172.5,56.5 172.5,58.5 172.5,60.5C 169.984,66.1716 165.818,67.8383 160,65.5C 158,63.1667 158,60.8333 160,58.5C 162.162,56.5038 164.662,55.1705 167.5,54.5 Z"/></g>
<g><path style="opacity:1" fill="#4e4b4b" d="M 231.5,45.5 C 231.5,54.1667 231.5,62.8333 231.5,71.5C 229.833,71.5 228.167,71.5 226.5,71.5C 226.876,62.7646 226.376,54.0979 225,45.5C 220.013,43.3028 216.346,44.6361 214,49.5C 213.5,57.1594 213.334,64.8261 213.5,72.5C 211.5,72.5 209.5,72.5 207.5,72.5C 207.666,64.4931 207.5,56.4931 207,48.5C 204.947,44.7084 201.781,43.5418 197.5,45C 196.54,46.4194 195.707,47.9194 195,49.5C 194.5,57.1594 194.334,64.8261 194.5,72.5C 192.5,72.5 190.5,72.5 188.5,72.5C 188.5,61.1667 188.5,49.8333 188.5,38.5C 190.5,38.5 192.5,38.5 194.5,38.5C 194.351,39.552 194.517,40.552 195,41.5C 200.561,36.731 206.061,37.0644 211.5,42.5C 216.526,37.3251 222.192,36.4918 228.5,40C 230.16,41.4877 231.16,43.321 231.5,45.5 Z"/></g>
<g><path style="opacity:1" fill="#575454" d="M 251.5,37.5 C 258.364,36.7422 263.198,39.4089 266,45.5C 266.333,52.8333 266.667,60.1667 267,67.5C 269.317,72.8393 267.817,74.006 262.5,71C 261.953,70.0754 261.287,69.2421 260.5,68.5C 253.714,74.0066 247.214,73.6733 241,67.5C 238.352,57.6632 242.185,51.8299 252.5,50C 255.146,49.5026 257.813,49.3359 260.5,49.5C 260.822,47.2776 260.155,45.4443 258.5,44C 253.274,42.8361 248.441,43.6694 244,46.5C 240.309,45.3252 239.809,43.4919 242.5,41C 245.459,39.3957 248.459,38.2291 251.5,37.5 Z M 254.5,54.5 C 256.5,54.5 258.5,54.5 260.5,54.5C 260.997,65.1413 256.497,68.4746 247,64.5C 246.333,62.8333 246.333,61.1667 247,59.5C 249.17,57.1769 251.67,55.5103 254.5,54.5 Z"/></g>
<g><path style="opacity:1" fill="#585555" d="M 335.5,37.5 C 347.501,37.4984 354.168,43.4984 355.5,55.5C 352.646,71.0891 343.98,75.9225 329.5,70C 321.201,59.6512 321.534,49.6512 330.5,40C 332.315,39.2432 333.981,38.4098 335.5,37.5 Z M 335.5,43.5 C 341.116,42.2237 344.949,44.2237 347,49.5C 348.702,56.2448 347.202,62.0782 342.5,67C 336.944,68.7781 333.11,66.9448 331,61.5C 328.458,54.3311 329.958,48.3311 335.5,43.5 Z"/></g>
<g><path style="opacity:1" fill="#595757" d="M 430.5,37.5 C 436.783,37.1394 441.45,39.6394 444.5,45C 443.788,46.442 442.621,47.2753 441,47.5C 439.806,45.9762 438.306,44.8096 436.5,44C 433.167,43.3333 429.833,43.3333 426.5,44C 423.598,46.8631 423.932,49.1964 427.5,51C 431.804,52.1065 436.137,53.1065 440.5,54C 446.768,58.9945 447.102,64.3279 441.5,70C 434.34,73.455 427.34,73.1217 420.5,69C 419.5,67.3333 418.5,65.6667 417.5,64C 418.43,63.0093 419.596,62.5093 421,62.5C 424.079,64.7839 427.579,66.1172 431.5,66.5C 435.484,66.8454 438.151,65.1787 439.5,61.5C 438.636,59.8035 437.303,58.6368 435.5,58C 431.071,57.3187 426.737,56.3187 422.5,55C 416.745,48.8633 417.412,43.53 424.5,39C 426.708,38.8091 428.708,38.3091 430.5,37.5 Z"/></g>
<g><path style="opacity:1" fill="#989797" d="M 368.5,30.5 C 369.477,33.2869 369.81,36.2869 369.5,39.5C 372.5,39.5 375.5,39.5 378.5,39.5C 378.784,41.4147 378.451,43.0813 377.5,44.5C 377.5,43.1667 377.5,41.8333 377.5,40.5C 374.5,40.5 371.5,40.5 368.5,40.5C 368.5,37.1667 368.5,33.8333 368.5,30.5 Z"/></g>
<g><path style="opacity:1" fill="#575555" d="M 395.5,38.5 C 408.896,38.2463 414.563,44.913 412.5,58.5C 405.159,58.3337 397.826,58.5003 390.5,59C 392.95,65.5587 397.617,67.892 404.5,66C 407.034,65.4837 409.2,64.317 411,62.5C 411.667,64.8333 411.667,67.1667 411,69.5C 392.559,76.6095 383.892,70.2762 385,50.5C 386.621,44.7204 390.121,40.7204 395.5,38.5 Z M 397.5,44.5 C 402.948,43.8858 406.282,46.2191 407.5,51.5C 401.863,52.6632 396.196,52.8299 390.5,52C 391.686,48.3175 394.019,45.8175 397.5,44.5 Z"/></g>
<g><path style="opacity:1" fill="#f4a9d4" d="M 12.5,56.5 C 11.4168,56.5394 10.4168,56.8728 9.5,57.5C 8.61432,56.675 8.28099,55.675 8.5,54.5C 9.5,54.5 10.5,54.5 11.5,54.5C 11.7989,52.396 11.4656,50.396 10.5,48.5C 3.95997,43.6215 4.62663,42.6215 12.5,45.5C 12.7352,46.0967 13.2352,46.4301 14,46.5C 16.6538,45.1328 19.4871,44.1328 22.5,43.5C 21.0095,42.7564 19.5095,42.0897 18,41.5C 17.5683,40.3999 18.0683,39.7332 19.5,39.5C 23.3352,40.1606 26.1686,42.1606 28,45.5C 30.4798,43.9103 32.3132,44.4103 33.5,47C 31.7031,50.146 29.5365,50.3127 27,47.5C 23.8609,48.8059 22.0276,51.1393 21.5,54.5C 20.8333,52.8333 20.1667,51.1667 19.5,49.5C 17.4789,52.1878 15.1456,54.5211 12.5,56.5 Z M 12.5,49.5 C 12.3433,50.8734 12.51,52.2068 13,53.5C 13.4652,52.0692 14.2986,50.9025 15.5,50C 14.552,49.5172 13.552,49.3505 12.5,49.5 Z"/></g>
<g><path style="opacity:1" fill="#fcfcfc" d="M 60.5,42.5 C 72.7001,42.5103 75.7001,47.677 69.5,58C 59.3932,60.8987 55.2265,57.0654 57,46.5C 58.3756,45.2949 59.5423,43.9616 60.5,42.5 Z"/></g>
<g><path style="opacity:1" fill="#7f7d7d" d="M 231.5,45.5 C 232.493,54.3178 232.827,63.3178 232.5,72.5C 230.265,72.7947 228.265,72.4614 226.5,71.5C 228.167,71.5 229.833,71.5 231.5,71.5C 231.5,62.8333 231.5,54.1667 231.5,45.5 Z"/></g>
<g><path style="opacity:1" fill="#b2b1b1" d="M 167.5,54.5 C 169.265,53.5386 171.265,53.2053 173.5,53.5C 173.802,56.0593 173.468,58.3926 172.5,60.5C 172.5,58.5 172.5,56.5 172.5,54.5C 170.833,54.5 169.167,54.5 167.5,54.5 Z"/></g>
<g><path style="opacity:1" fill="#cfcece" d="M 179.5,69.5 C 180.776,70.3864 180.776,71.3864 179.5,72.5C 178.893,72.3764 178.56,72.0431 178.5,71.5C 179.338,71.1583 179.672,70.4916 179.5,69.5 Z"/></g>
</svg>
