<svg xmlns="http://www.w3.org/2000/svg" xmlns:xlink="http://www.w3.org/1999/xlink" width="510" zoomAndPan="magnify" viewBox="0 0 382.5 74.999997" height="100" preserveAspectRatio="xMidYMid meet" version="1.0"><defs><g/><clipPath id="ef8c04a86f"><path d="M 0 0.0507812 L 382 0.0507812 L 382 74.949219 L 0 74.949219 Z M 0 0.0507812 " clip-rule="nonzero"/></clipPath><clipPath id="35692840f3"><path d="M 7.488281 5.792969 L 70.90625 5.792969 L 70.90625 69.207031 L 7.488281 69.207031 Z M 7.488281 5.792969 " clip-rule="nonzero"/></clipPath><clipPath id="941c6524ae"><path d="M 24 20 L 53 20 L 53 57 L 24 57 Z M 24 20 " clip-rule="nonzero"/></clipPath><clipPath id="d43e520557"><path d="M 19.261719 28.90625 L 44.074219 15.332031 L 62.640625 49.269531 L 37.828125 62.84375 Z M 19.261719 28.90625 " clip-rule="nonzero"/></clipPath><clipPath id="5f1a3c856a"><path d="M 19.261719 28.90625 L 44.074219 15.332031 L 62.640625 49.269531 L 37.828125 62.84375 Z M 19.261719 28.90625 " clip-rule="nonzero"/></clipPath></defs><g clip-path="url(#ef8c04a86f)"><path fill="#ffffff" d="M 0 0.0507812 L 382 0.0507812 L 382 74.949219 L 0 74.949219 Z M 0 0.0507812 " fill-opacity="1" fill-rule="nonzero"/><path fill="#6f9142" d="M 0 0.0507812 L 382 0.0507812 L 382 74.949219 L 0 74.949219 Z M 0 0.0507812 " fill-opacity="1" fill-rule="nonzero"/></g><g fill="#ffffff" fill-opacity="1"><g transform="translate(72.837059, 55.560982)"><g><path d="M 25.859375 -36.828125 C 26.484375 -37.960938 26.878906 -38.53125 27.046875 -38.53125 C 27.210938 -38.53125 27.984375 -38.34375 29.359375 -37.96875 C 30.160156 -37.757812 31.734375 -37.316406 34.078125 -36.640625 C 35.785156 -36.179688 36.660156 -35.929688 36.703125 -35.890625 C 36.703125 -35.847656 36.472656 -35.523438 36.015625 -34.921875 C 35.554688 -34.316406 34.738281 -33.226562 33.5625 -31.65625 C 32.394531 -30.082031 30.847656 -28.019531 28.921875 -25.46875 C 26.078125 -21.707031 24.34375 -19.203125 23.71875 -17.953125 C 23.46875 -17.398438 23.3125 -16.769531 23.25 -16.0625 C 23.1875 -15.351562 23.15625 -13.328125 23.15625 -9.984375 C 23.15625 -6.878906 23.207031 -4.644531 23.3125 -3.28125 C 23.414062 -1.925781 23.613281 -0.289062 23.90625 1.625 L 24.09375 2.578125 L 18.640625 2.453125 C 14.992188 2.367188 13.128906 2.265625 13.046875 2.140625 C 13.046875 2.140625 13.046875 2.070312 13.046875 1.9375 C 13.046875 1.519531 13.148438 0.414062 13.359375 -1.375 C 13.523438 -3.675781 13.675781 -6.878906 13.8125 -10.984375 L 14 -17.125 L 13.421875 -18.390625 C 12.796875 -19.515625 10.726562 -22.671875 7.21875 -27.859375 L 3.765625 -32.9375 C 2.171875 -35.238281 1.269531 -36.535156 1.0625 -36.828125 C 0.851562 -37.210938 0.75 -37.46875 0.75 -37.59375 C 0.75 -37.632812 0.75 -37.675781 0.75 -37.71875 C 0.832031 -37.800781 2.078125 -37.914062 4.484375 -38.0625 C 6.890625 -38.207031 8.722656 -38.28125 9.984375 -38.28125 L 11.484375 -38.28125 L 12.359375 -36.453125 C 13.234375 -34.828125 14.519531 -32.625 16.21875 -29.84375 C 17.914062 -27.0625 18.847656 -25.671875 19.015625 -25.671875 C 19.140625 -25.671875 19.328125 -25.898438 19.578125 -26.359375 C 19.703125 -26.523438 20.664062 -28.113281 22.46875 -31.125 C 23.550781 -32.882812 24.679688 -34.785156 25.859375 -36.828125 Z M 25.859375 -36.828125 "/></g></g></g><g fill="#ffffff" fill-opacity="1"><g transform="translate(110.229003, 55.560982)"><g><path d="M 16.1875 -5.328125 C 16.5625 -5.578125 16.769531 -5.835938 16.8125 -6.109375 C 16.851562 -6.390625 16.851562 -7.15625 16.8125 -8.40625 L 16.75 -10.984375 L 15.3125 -10.734375 C 12.632812 -10.097656 11.003906 -9.03125 10.421875 -7.53125 C 10.085938 -6.78125 10.046875 -6.003906 10.296875 -5.203125 C 10.546875 -4.410156 10.941406 -3.953125 11.484375 -3.828125 C 12.148438 -3.617188 12.929688 -3.660156 13.828125 -3.953125 C 14.734375 -4.242188 15.519531 -4.703125 16.1875 -5.328125 Z M 11.859375 -26.296875 C 14.867188 -27.046875 17.617188 -26.882812 20.109375 -25.8125 C 22.597656 -24.75 24.195312 -23.003906 24.90625 -20.578125 C 25.15625 -19.953125 25.34375 -17.441406 25.46875 -13.046875 C 25.601562 -8.617188 25.753906 -6.128906 25.921875 -5.578125 C 26.210938 -4.328125 26.960938 -3.703125 28.171875 -3.703125 C 28.921875 -3.703125 29.398438 -3.640625 29.609375 -3.515625 C 29.828125 -3.390625 29.8125 -3.097656 29.5625 -2.640625 C 29.175781 -1.960938 28.453125 -1.144531 27.390625 -0.1875 C 26.328125 0.769531 25.394531 1.4375 24.59375 1.8125 C 23.925781 2.15625 23.425781 2.367188 23.09375 2.453125 C 22.757812 2.535156 22.40625 2.535156 22.03125 2.453125 C 20.476562 2.328125 19.140625 1.613281 18.015625 0.3125 L 17.3125 -0.5 L 16.5 0.0625 C 15.914062 0.519531 15.039062 1 13.875 1.5 C 13.03125 1.84375 12.367188 2.085938 11.890625 2.234375 C 11.410156 2.378906 10.664062 2.472656 9.65625 2.515625 C 8.613281 2.554688 7.894531 2.554688 7.5 2.515625 C 7.101562 2.472656 6.546875 2.28125 5.828125 1.9375 C 2.773438 0.5625 1.375 -1.984375 1.625 -5.703125 C 1.882812 -8.804688 3.644531 -11.335938 6.90625 -13.296875 C 7.570312 -13.640625 8.582031 -14.070312 9.9375 -14.59375 C 11.300781 -15.113281 12.441406 -15.457031 13.359375 -15.625 C 13.484375 -15.664062 13.804688 -15.726562 14.328125 -15.8125 C 14.859375 -15.894531 15.25 -15.957031 15.5 -16 L 16.9375 -16.25 L 16.8125 -17.375 C 16.519531 -19.675781 15.515625 -20.859375 13.796875 -20.921875 C 12.085938 -20.984375 9.976562 -19.929688 7.46875 -17.765625 C 6.96875 -17.171875 6.632812 -16.851562 6.46875 -16.8125 C 6.300781 -16.769531 6.15625 -16.832031 6.03125 -17 C 5.601562 -17.632812 4.597656 -18.953125 3.015625 -20.953125 L 2.265625 -21.84375 L 3.015625 -22.34375 C 4.097656 -23.050781 5.644531 -23.832031 7.65625 -24.6875 C 9.664062 -25.550781 11.066406 -26.085938 11.859375 -26.296875 Z M 11.859375 -26.296875 "/></g></g></g><g fill="#ffffff" fill-opacity="1"><g transform="translate(139.402237, 55.560982)"><g><path d="M 15.75 -26.484375 C 16.289062 -26.648438 17.191406 -26.734375 18.453125 -26.734375 C 18.703125 -26.734375 18.953125 -26.734375 19.203125 -26.734375 C 20.328125 -26.691406 21.097656 -26.617188 21.515625 -26.515625 C 21.941406 -26.410156 22.59375 -26.171875 23.46875 -25.796875 C 24.757812 -25.078125 25.703125 -24.382812 26.296875 -23.71875 L 27.296875 -22.78125 L 28.484375 -23.71875 C 30.242188 -25.1875 32.023438 -26.128906 33.828125 -26.546875 C 34.492188 -26.710938 35.242188 -26.796875 36.078125 -26.796875 C 36.410156 -26.796875 36.765625 -26.773438 37.140625 -26.734375 C 38.523438 -26.691406 39.800781 -26.398438 40.96875 -25.859375 C 42.1875 -25.265625 43.109375 -24.613281 43.734375 -23.90625 C 44.398438 -23.238281 44.847656 -22.585938 45.078125 -21.953125 C 45.316406 -21.328125 45.476562 -20.394531 45.5625 -19.15625 C 45.644531 -17.925781 45.6875 -15.597656 45.6875 -12.171875 C 45.726562 -6.566406 45.875 -2.800781 46.125 -0.875 C 46.375 1.050781 46.5 2.160156 46.5 2.453125 C 46.5 2.660156 45.992188 2.765625 44.984375 2.765625 C 43.984375 2.765625 42.789062 2.671875 41.40625 2.484375 C 40.03125 2.296875 38.84375 2.050781 37.84375 1.75 L 36.390625 1.375 L 36.640625 -1.25 C 36.765625 -2.84375 36.828125 -5.019531 36.828125 -7.78125 C 36.828125 -8.488281 36.816406 -9.992188 36.796875 -12.296875 C 36.773438 -14.597656 36.679688 -16.082031 36.515625 -16.75 C 36.140625 -18.007812 35.617188 -18.804688 34.953125 -19.140625 C 34.285156 -19.472656 33.738281 -19.640625 33.3125 -19.640625 C 32.726562 -19.640625 32.125 -19.472656 31.5 -19.140625 C 30.289062 -18.515625 29.492188 -17.382812 29.109375 -15.75 C 28.941406 -15 28.859375 -12.613281 28.859375 -8.59375 C 28.859375 -4.582031 28.941406 -1.738281 29.109375 -0.0625 C 29.234375 1.101562 29.296875 1.898438 29.296875 2.328125 C 29.296875 2.535156 29.273438 2.660156 29.234375 2.703125 C 29.191406 2.742188 29.023438 2.765625 28.734375 2.765625 C 27.984375 2.765625 26.476562 2.640625 24.21875 2.390625 L 19.328125 1.8125 L 19.328125 1.125 C 19.328125 0.664062 19.429688 -0.984375 19.640625 -3.828125 C 19.890625 -6.710938 20.015625 -9.179688 20.015625 -11.234375 C 20.015625 -14.410156 19.722656 -16.609375 19.140625 -17.828125 C 18.429688 -19.160156 17.382812 -19.828125 16 -19.828125 C 15.914062 -19.828125 15.484375 -19.804688 14.703125 -19.765625 C 13.929688 -19.722656 13.171875 -18.945312 12.421875 -17.4375 C 12.128906 -16.8125 11.953125 -16.15625 11.890625 -15.46875 C 11.828125 -14.78125 11.796875 -12.738281 11.796875 -9.34375 C 11.796875 -4.75 11.921875 -1.59375 12.171875 0.125 C 12.335938 1.425781 12.421875 2.265625 12.421875 2.640625 C 12.421875 2.804688 12.398438 2.890625 12.359375 2.890625 C 12.359375 2.890625 12.296875 2.890625 12.171875 2.890625 C 11.710938 2.890625 10 2.6875 7.03125 2.28125 C 4.0625 1.882812 2.554688 1.664062 2.515625 1.625 C 2.515625 1.457031 2.597656 0.5 2.765625 -1.25 C 3.304688 -5.851562 3.578125 -10.414062 3.578125 -14.9375 C 3.578125 -16.0625 3.554688 -17.191406 3.515625 -18.328125 C 3.390625 -22.628906 3.304688 -24.882812 3.265625 -25.09375 C 3.265625 -25.175781 3.265625 -25.257812 3.265625 -25.34375 C 3.265625 -25.476562 3.285156 -25.546875 3.328125 -25.546875 C 3.328125 -25.546875 3.367188 -25.546875 3.453125 -25.546875 C 3.828125 -25.546875 5.125 -25.289062 7.34375 -24.78125 L 11.171875 -23.90625 L 11.859375 -24.46875 C 12.984375 -25.394531 14.28125 -26.066406 15.75 -26.484375 Z M 15.75 -26.484375 "/></g></g></g><g fill="#ffffff" fill-opacity="1"><g transform="translate(188.400732, 55.560982)"><g><path d="M 16.1875 -5.328125 C 16.5625 -5.578125 16.769531 -5.835938 16.8125 -6.109375 C 16.851562 -6.390625 16.851562 -7.15625 16.8125 -8.40625 L 16.75 -10.984375 L 15.3125 -10.734375 C 12.632812 -10.097656 11.003906 -9.03125 10.421875 -7.53125 C 10.085938 -6.78125 10.046875 -6.003906 10.296875 -5.203125 C 10.546875 -4.410156 10.941406 -3.953125 11.484375 -3.828125 C 12.148438 -3.617188 12.929688 -3.660156 13.828125 -3.953125 C 14.734375 -4.242188 15.519531 -4.703125 16.1875 -5.328125 Z M 11.859375 -26.296875 C 14.867188 -27.046875 17.617188 -26.882812 20.109375 -25.8125 C 22.597656 -24.75 24.195312 -23.003906 24.90625 -20.578125 C 25.15625 -19.953125 25.34375 -17.441406 25.46875 -13.046875 C 25.601562 -8.617188 25.753906 -6.128906 25.921875 -5.578125 C 26.210938 -4.328125 26.960938 -3.703125 28.171875 -3.703125 C 28.921875 -3.703125 29.398438 -3.640625 29.609375 -3.515625 C 29.828125 -3.390625 29.8125 -3.097656 29.5625 -2.640625 C 29.175781 -1.960938 28.453125 -1.144531 27.390625 -0.1875 C 26.328125 0.769531 25.394531 1.4375 24.59375 1.8125 C 23.925781 2.15625 23.425781 2.367188 23.09375 2.453125 C 22.757812 2.535156 22.40625 2.535156 22.03125 2.453125 C 20.476562 2.328125 19.140625 1.613281 18.015625 0.3125 L 17.3125 -0.5 L 16.5 0.0625 C 15.914062 0.519531 15.039062 1 13.875 1.5 C 13.03125 1.84375 12.367188 2.085938 11.890625 2.234375 C 11.410156 2.378906 10.664062 2.472656 9.65625 2.515625 C 8.613281 2.554688 7.894531 2.554688 7.5 2.515625 C 7.101562 2.472656 6.546875 2.28125 5.828125 1.9375 C 2.773438 0.5625 1.375 -1.984375 1.625 -5.703125 C 1.882812 -8.804688 3.644531 -11.335938 6.90625 -13.296875 C 7.570312 -13.640625 8.582031 -14.070312 9.9375 -14.59375 C 11.300781 -15.113281 12.441406 -15.457031 13.359375 -15.625 C 13.484375 -15.664062 13.804688 -15.726562 14.328125 -15.8125 C 14.859375 -15.894531 15.25 -15.957031 15.5 -16 L 16.9375 -16.25 L 16.8125 -17.375 C 16.519531 -19.675781 15.515625 -20.859375 13.796875 -20.921875 C 12.085938 -20.984375 9.976562 -19.929688 7.46875 -17.765625 C 6.96875 -17.171875 6.632812 -16.851562 6.46875 -16.8125 C 6.300781 -16.769531 6.15625 -16.832031 6.03125 -17 C 5.601562 -17.632812 4.597656 -18.953125 3.015625 -20.953125 L 2.265625 -21.84375 L 3.015625 -22.34375 C 4.097656 -23.050781 5.644531 -23.832031 7.65625 -24.6875 C 9.664062 -25.550781 11.066406 -26.085938 11.859375 -26.296875 Z M 11.859375 -26.296875 "/></g></g></g><g fill="#ffffff" fill-opacity="1"><g transform="translate(217.573965, 55.560982)"><g><path d="M 27.671875 -25.796875 C 27.628906 -28.222656 27.609375 -30.289062 27.609375 -32 C 27.609375 -36.351562 27.691406 -38.53125 27.859375 -38.53125 C 28.066406 -38.53125 29.070312 -38.320312 30.875 -37.90625 C 32.925781 -37.394531 34.410156 -37.078125 35.328125 -36.953125 C 36.367188 -36.828125 36.929688 -36.722656 37.015625 -36.640625 C 37.015625 -36.640625 37.015625 -36.597656 37.015625 -36.515625 C 37.015625 -35.847656 36.890625 -33.191406 36.640625 -28.546875 C 36.015625 -16.710938 35.703125 -7.21875 35.703125 -0.0625 L 35.703125 2.453125 L 34.515625 2.453125 C 32.253906 2.453125 29.679688 2.472656 26.796875 2.515625 L 24.90625 2.578125 L 19.078125 -11.296875 C 15.734375 -19.242188 13.742188 -23.21875 13.109375 -23.21875 C 13.066406 -23.21875 13.046875 -23.21875 13.046875 -23.21875 C 12.960938 -23.21875 12.910156 -22.222656 12.890625 -20.234375 C 12.867188 -18.242188 12.859375 -16.726562 12.859375 -15.6875 C 12.859375 -13.550781 12.878906 -10.988281 12.921875 -8 C 12.960938 -5.007812 13.023438 -2.71875 13.109375 -1.125 C 13.234375 0.707031 13.296875 1.960938 13.296875 2.640625 C 13.296875 3.015625 13.273438 3.222656 13.234375 3.265625 C 13.234375 3.304688 13.191406 3.328125 13.109375 3.328125 C 12.816406 3.328125 12.191406 3.179688 11.234375 2.890625 C 9.847656 2.472656 8.195312 2.113281 6.28125 1.8125 L 3.265625 1.375 L 3.453125 0.0625 C 4.242188 -7.09375 4.640625 -14.015625 4.640625 -20.703125 C 4.640625 -24.765625 4.492188 -28.738281 4.203125 -32.625 C 4.078125 -34.71875 4.015625 -36.179688 4.015625 -37.015625 C 4.015625 -37.523438 4.035156 -37.800781 4.078125 -37.84375 C 4.160156 -37.925781 5.144531 -37.96875 7.03125 -37.96875 C 7.65625 -37.96875 8.382812 -37.96875 9.21875 -37.96875 L 14.1875 -37.90625 L 18.203125 -30.125 C 22.253906 -22.257812 24.65625 -17.757812 25.40625 -16.625 C 25.625 -16.289062 26.023438 -15.582031 26.609375 -14.5 C 27.148438 -13.53125 27.472656 -13.046875 27.578125 -13.046875 C 27.679688 -13.046875 27.734375 -14.570312 27.734375 -17.625 C 27.734375 -19.675781 27.710938 -22.398438 27.671875 -25.796875 Z M 27.671875 -25.796875 "/></g></g></g><g fill="#ffffff" fill-opacity="1"><g transform="translate(257.914593, 55.560982)"><g><path d="M 13.484375 -26.421875 C 14.285156 -26.585938 15.144531 -26.671875 16.0625 -26.671875 C 16.851562 -26.671875 17.945312 -26.566406 19.34375 -26.359375 C 20.75 -26.148438 22.144531 -25.664062 23.53125 -24.90625 C 24.695312 -24.28125 25.789062 -23.429688 26.8125 -22.359375 C 27.84375 -21.296875 28.671875 -20.160156 29.296875 -18.953125 C 29.890625 -17.734375 30.300781 -16.613281 30.53125 -15.59375 C 30.757812 -14.570312 30.875 -13.265625 30.875 -11.671875 C 30.875 -11.628906 30.875 -11.566406 30.875 -11.484375 C 30.875 -7.210938 29.410156 -3.738281 26.484375 -1.0625 C 23.679688 1.53125 20.226562 2.828125 16.125 2.828125 C 11.726562 2.785156 8.210938 1.363281 5.578125 -1.4375 C 2.941406 -4.238281 1.625 -7.628906 1.625 -11.609375 C 1.625 -11.941406 1.625 -12.253906 1.625 -12.546875 C 1.882812 -16.023438 3.097656 -19.046875 5.265625 -21.609375 C 7.441406 -24.179688 10.179688 -25.785156 13.484375 -26.421875 Z M 17.828125 -19.953125 C 17.023438 -20.117188 16.46875 -20.203125 16.15625 -20.203125 C 15.84375 -20.203125 15.375 -20.078125 14.75 -19.828125 C 13.320312 -19.328125 12.128906 -18.257812 11.171875 -16.625 C 10.796875 -15.832031 10.566406 -15.207031 10.484375 -14.75 C 10.398438 -14.289062 10.316406 -13.429688 10.234375 -12.171875 C 10.191406 -11.753906 10.171875 -11.359375 10.171875 -10.984375 C 10.171875 -9.722656 10.335938 -8.695312 10.671875 -7.90625 C 11.335938 -6.144531 12.222656 -5.003906 13.328125 -4.484375 C 14.441406 -3.960938 15.351562 -3.703125 16.0625 -3.703125 C 16.851562 -3.703125 17.671875 -3.910156 18.515625 -4.328125 C 19.347656 -4.660156 19.953125 -5.054688 20.328125 -5.515625 C 20.703125 -5.984375 21.144531 -6.71875 21.65625 -7.71875 C 21.988281 -8.425781 22.195312 -9 22.28125 -9.4375 C 22.363281 -9.882812 22.40625 -10.753906 22.40625 -12.046875 C 22.40625 -13.304688 22.351562 -14.175781 22.25 -14.65625 C 22.144531 -15.132812 21.945312 -15.6875 21.65625 -16.3125 C 21.269531 -17.1875 20.710938 -17.957031 19.984375 -18.625 C 19.253906 -19.300781 18.535156 -19.742188 17.828125 -19.953125 Z M 17.828125 -19.953125 "/></g></g></g><g fill="#ffffff" fill-opacity="1"><g transform="translate(290.475697, 55.560982)"><g><path d="M 7.09375 -36.578125 C 7.132812 -36.660156 7.21875 -36.703125 7.34375 -36.703125 C 7.425781 -36.703125 7.53125 -36.679688 7.65625 -36.640625 C 8.28125 -36.347656 9.679688 -36.015625 11.859375 -35.640625 C 14.035156 -35.265625 15.476562 -35.078125 16.1875 -35.078125 C 16.3125 -35.078125 16.382812 -34.898438 16.40625 -34.546875 C 16.425781 -34.191406 16.4375 -33.867188 16.4375 -33.578125 C 16.4375 -33.023438 16.414062 -32.195312 16.375 -31.09375 C 16.332031 -29.988281 16.25 -28.660156 16.125 -27.109375 L 16 -25.546875 L 17 -25.734375 C 17.84375 -25.898438 18.972656 -26.171875 20.390625 -26.546875 C 21.484375 -26.878906 22.21875 -27.046875 22.59375 -27.046875 C 22.757812 -27.046875 22.863281 -27.003906 22.90625 -26.921875 C 22.988281 -26.546875 23.34375 -25.5 23.96875 -23.78125 C 24.59375 -22.0625 24.988281 -21.035156 25.15625 -20.703125 L 25.671875 -19.765625 L 24.65625 -19.640625 C 24.195312 -19.554688 23.003906 -19.410156 21.078125 -19.203125 C 19.410156 -18.992188 18.175781 -18.828125 17.375 -18.703125 L 16.125 -18.578125 L 16.0625 -15.6875 C 16.0625 -15.144531 16.0625 -14.601562 16.0625 -14.0625 C 16.0625 -12.507812 16.101562 -11.082031 16.1875 -9.78125 C 16.351562 -7.738281 16.5625 -6.253906 16.8125 -5.328125 C 17.0625 -4.410156 17.460938 -3.804688 18.015625 -3.515625 C 18.347656 -3.265625 19.078125 -3.085938 20.203125 -2.984375 C 21.335938 -2.878906 22.257812 -2.828125 22.96875 -2.828125 C 23.425781 -2.828125 23.863281 -2.847656 24.28125 -2.890625 C 24.695312 -2.929688 25.050781 -2.953125 25.34375 -2.953125 C 25.726562 -2.953125 25.921875 -2.910156 25.921875 -2.828125 C 25.921875 -2.617188 25.375 -1.957031 24.28125 -0.84375 C 23.195312 0.257812 22.382812 1 21.84375 1.375 C 20.75 2.09375 19.738281 2.597656 18.8125 2.890625 C 17.894531 3.179688 16.75 3.328125 15.375 3.328125 C 14.195312 3.328125 13.390625 3.285156 12.953125 3.203125 C 12.515625 3.117188 11.960938 2.910156 11.296875 2.578125 C 10.335938 2.109375 9.519531 1.539062 8.84375 0.875 C 8.050781 -0.0390625 7.59375 -0.9375 7.46875 -1.8125 C 7.34375 -2.695312 7.28125 -4.1875 7.28125 -6.28125 C 7.28125 -7.445312 7.300781 -8.867188 7.34375 -10.546875 L 7.46875 -17.5 L 5.390625 -17 C 4.097656 -16.707031 3.367188 -16.5625 3.203125 -16.5625 C 3.160156 -16.5625 3.140625 -16.5625 3.140625 -16.5625 C 3.097656 -16.601562 2.789062 -17.617188 2.21875 -19.609375 C 1.65625 -21.597656 1.3125 -22.820312 1.1875 -23.28125 C 1.1875 -23.320312 1.1875 -23.363281 1.1875 -23.40625 C 1.1875 -23.613281 1.300781 -23.738281 1.53125 -23.78125 C 1.757812 -23.820312 2.566406 -23.882812 3.953125 -23.96875 C 5.796875 -24.050781 6.84375 -24.132812 7.09375 -24.21875 C 7.257812 -24.257812 7.351562 -24.90625 7.375 -26.15625 C 7.394531 -27.414062 7.40625 -28.171875 7.40625 -28.421875 C 7.40625 -30.390625 7.320312 -32.273438 7.15625 -34.078125 C 7.070312 -35.035156 7.03125 -35.722656 7.03125 -36.140625 C 7.03125 -36.390625 7.050781 -36.535156 7.09375 -36.578125 Z M 7.09375 -36.578125 "/></g></g></g><g fill="#ffffff" fill-opacity="1"><g transform="translate(317.327646, 55.560982)"><g><path d="M 13.359375 -26.171875 C 14.160156 -26.335938 14.9375 -26.421875 15.6875 -26.421875 C 17.65625 -26.421875 19.597656 -25.914062 21.515625 -24.90625 C 24.410156 -23.445312 26.253906 -20.726562 27.046875 -16.75 C 27.253906 -15.75 27.359375 -14.894531 27.359375 -14.1875 C 27.359375 -13.71875 27.273438 -13.179688 27.109375 -12.578125 C 26.941406 -11.972656 26.375 -11.460938 25.40625 -11.046875 C 23.695312 -10.296875 20.207031 -9.769531 14.9375 -9.46875 L 10.171875 -9.21875 L 10.421875 -8.34375 C 10.835938 -6.84375 11.585938 -5.628906 12.671875 -4.703125 C 13.335938 -4.117188 13.984375 -3.742188 14.609375 -3.578125 C 15.242188 -3.410156 15.9375 -3.328125 16.6875 -3.328125 C 17.019531 -3.328125 17.378906 -3.347656 17.765625 -3.390625 C 20.265625 -3.597656 22.726562 -4.789062 25.15625 -6.96875 L 26.984375 -8.59375 L 26.984375 -7.40625 C 26.984375 -6.144531 26.6875 -4.832031 26.09375 -3.46875 C 25.507812 -2.113281 24.820312 -1.0625 24.03125 -0.3125 C 22.488281 1.101562 20.867188 1.988281 19.171875 2.34375 C 17.472656 2.707031 16.082031 2.890625 15 2.890625 C 13.738281 2.890625 12.484375 2.742188 11.234375 2.453125 C 8.847656 1.898438 6.859375 0.769531 5.265625 -0.9375 C 3.972656 -2.363281 3.082031 -3.804688 2.59375 -5.265625 C 2.113281 -6.734375 1.875 -8.640625 1.875 -10.984375 C 1.875 -14.992188 2.835938 -18.316406 4.765625 -20.953125 C 5.648438 -22.171875 6.90625 -23.257812 8.53125 -24.21875 C 10.164062 -25.1875 11.773438 -25.835938 13.359375 -26.171875 Z M 16.9375 -20.453125 C 16.269531 -20.785156 15.726562 -20.953125 15.3125 -20.953125 C 14.8125 -20.953125 14.222656 -20.765625 13.546875 -20.390625 C 12.878906 -20.015625 12.378906 -19.617188 12.046875 -19.203125 C 11.628906 -18.703125 11.242188 -18.039062 10.890625 -17.21875 C 10.535156 -16.40625 10.359375 -15.832031 10.359375 -15.5 C 10.359375 -15.25 10.410156 -15.113281 10.515625 -15.09375 C 10.617188 -15.070312 10.710938 -15.0625 10.796875 -15.0625 C 11.046875 -15.0625 11.546875 -15.101562 12.296875 -15.1875 C 15.847656 -15.476562 17.960938 -15.789062 18.640625 -16.125 C 18.929688 -16.25 19.078125 -16.582031 19.078125 -17.125 C 19.078125 -17.164062 19.066406 -17.34375 19.046875 -17.65625 C 19.023438 -17.976562 18.847656 -18.410156 18.515625 -18.953125 C 18.179688 -19.617188 17.65625 -20.117188 16.9375 -20.453125 Z M 16.9375 -20.453125 "/></g></g></g><g fill="#ffffff" fill-opacity="1"><g transform="translate(346.249934, 55.560982)"><g><path d="M 11.734375 -26.421875 C 12.523438 -26.546875 13.703125 -26.648438 15.265625 -26.734375 C 16.835938 -26.816406 18.191406 -26.859375 19.328125 -26.859375 C 19.617188 -26.859375 20.179688 -26.847656 21.015625 -26.828125 C 21.859375 -26.804688 22.28125 -26.710938 22.28125 -26.546875 C 22.28125 -26.296875 22.40625 -25.269531 22.65625 -23.46875 C 22.90625 -21.75 23.03125 -20.765625 23.03125 -20.515625 C 23.03125 -20.472656 23.03125 -20.453125 23.03125 -20.453125 C 23.03125 -20.410156 22.925781 -20.390625 22.71875 -20.390625 C 22.382812 -20.390625 21.796875 -20.453125 20.953125 -20.578125 C 19.742188 -20.742188 18.375 -20.828125 16.84375 -20.828125 C 15.320312 -20.828125 14.222656 -20.742188 13.546875 -20.578125 C 12.585938 -20.285156 11.960938 -19.890625 11.671875 -19.390625 C 11.378906 -18.890625 11.234375 -18.492188 11.234375 -18.203125 C 11.234375 -17.867188 11.398438 -17.53125 11.734375 -17.1875 C 12.023438 -16.894531 13.28125 -16.414062 15.5 -15.75 C 17.925781 -15 19.609375 -14.304688 20.546875 -13.671875 C 21.492188 -13.046875 22.320312 -12.128906 23.03125 -10.921875 C 23.363281 -10.335938 23.5625 -9.832031 23.625 -9.40625 C 23.6875 -8.988281 23.71875 -8.195312 23.71875 -7.03125 C 23.71875 -6.863281 23.71875 -6.71875 23.71875 -6.59375 C 23.71875 -5.082031 23.53125 -3.910156 23.15625 -3.078125 C 22.820312 -2.367188 22.273438 -1.59375 21.515625 -0.75 C 20.765625 0.0820312 19.992188 0.726562 19.203125 1.1875 C 18.023438 1.90625 16.703125 2.347656 15.234375 2.515625 C 13.773438 2.679688 12.628906 2.765625 11.796875 2.765625 C 10.503906 2.765625 9.207031 2.660156 7.90625 2.453125 C 6.738281 2.285156 5.429688 1.988281 3.984375 1.5625 C 2.535156 1.144531 1.726562 0.832031 1.5625 0.625 C 1.5625 0.457031 1.914062 -0.710938 2.625 -2.890625 C 3.34375 -5.066406 3.722656 -6.195312 3.765625 -6.28125 C 3.765625 -6.320312 3.785156 -6.34375 3.828125 -6.34375 C 3.992188 -6.34375 4.285156 -6.148438 4.703125 -5.765625 C 6.210938 -4.390625 7.613281 -3.617188 8.90625 -3.453125 C 10.207031 -3.285156 11.046875 -3.203125 11.421875 -3.203125 C 12.972656 -3.203125 14.082031 -3.660156 14.75 -4.578125 C 15.082031 -4.992188 15.269531 -5.390625 15.3125 -5.765625 C 15.351562 -6.148438 15.375 -6.40625 15.375 -6.53125 C 15.375 -6.988281 15.289062 -7.382812 15.125 -7.71875 C 14.832031 -8.257812 13.515625 -8.820312 11.171875 -9.40625 C 8.910156 -10 7.21875 -10.609375 6.09375 -11.234375 C 5.664062 -11.441406 5.117188 -11.890625 4.453125 -12.578125 C 3.785156 -13.265625 3.347656 -13.84375 3.140625 -14.3125 C 2.765625 -15.1875 2.578125 -16.125 2.578125 -17.125 C 2.578125 -17.800781 2.660156 -18.515625 2.828125 -19.265625 C 3.742188 -23.109375 6.710938 -25.492188 11.734375 -26.421875 Z M 11.734375 -26.421875 "/></g></g></g><g clip-path="url(#35692840f3)"><path fill="#fd5b40" d="M 39.199219 5.792969 C 21.679688 5.792969 7.488281 19.980469 7.488281 37.5 C 7.488281 55.019531 21.679688 69.207031 39.199219 69.207031 C 56.71875 69.207031 70.90625 55.019531 70.90625 37.5 C 70.90625 19.980469 56.71875 5.792969 39.199219 5.792969 Z M 39.199219 62.867188 C 25.183594 62.867188 13.832031 51.515625 13.832031 37.5 C 13.832031 23.484375 25.183594 12.132812 39.199219 12.132812 C 53.214844 12.132812 64.566406 23.484375 64.566406 37.5 C 64.566406 51.515625 53.214844 62.867188 39.199219 62.867188 Z M 39.199219 62.867188 " fill-opacity="1" fill-rule="nonzero"/></g><g clip-path="url(#941c6524ae)"><g clip-path="url(#d43e520557)"><g clip-path="url(#5f1a3c856a)"><path fill="#fd5b40" d="M 31.652344 22.125 C 24.839844 25.855469 22.445312 34.605469 26.3125 41.671875 C 30.179688 48.738281 34.941406 46.800781 50.230469 56.085938 C 50.632812 38.214844 54.863281 35.242188 50.992188 28.171875 C 47.125 21.101562 38.46875 18.398438 31.652344 22.125 Z M 41.300781 39.757812 C 40.984375 39.921875 40.65625 40.054688 40.316406 40.15625 C 39.972656 40.253906 39.625 40.320312 39.273438 40.351562 C 38.917969 40.382812 38.566406 40.382812 38.210938 40.34375 C 37.859375 40.304688 37.511719 40.234375 37.171875 40.128906 C 36.832031 40.019531 36.507812 39.882812 36.195312 39.710938 C 35.882812 39.542969 35.589844 39.34375 35.316406 39.117188 C 35.046875 38.886719 34.796875 38.636719 34.574219 38.359375 C 34.351562 38.082031 34.15625 37.789062 33.992188 37.472656 C 33.816406 37.164062 33.671875 36.839844 33.558594 36.503906 C 33.445312 36.167969 33.367188 35.824219 33.324219 35.46875 C 33.28125 35.117188 33.269531 34.765625 33.296875 34.410156 C 33.320312 34.054688 33.378906 33.707031 33.472656 33.363281 C 33.566406 33.023438 33.695312 32.691406 33.851562 32.375 C 34.011719 32.054688 34.199219 31.757812 34.417969 31.476562 C 34.632812 31.195312 34.878906 30.9375 35.144531 30.703125 C 35.414062 30.472656 35.703125 30.265625 36.011719 30.089844 C 36.324219 29.925781 36.652344 29.792969 36.992188 29.691406 C 37.335938 29.59375 37.679688 29.527344 38.035156 29.496094 C 38.390625 29.464844 38.742188 29.46875 39.097656 29.503906 C 39.449219 29.542969 39.796875 29.613281 40.132812 29.71875 C 40.472656 29.828125 40.800781 29.964844 41.109375 30.132812 C 41.421875 30.304688 41.714844 30.503906 41.988281 30.730469 C 42.261719 30.957031 42.507812 31.210938 42.734375 31.484375 C 42.957031 31.761719 43.152344 32.058594 43.316406 32.371094 C 43.492188 32.679688 43.636719 33.003906 43.75 33.339844 C 43.859375 33.675781 43.9375 34.023438 43.984375 34.375 C 44.027344 34.726562 44.039062 35.082031 44.011719 35.4375 C 43.988281 35.789062 43.929688 36.140625 43.835938 36.480469 C 43.742188 36.824219 43.617188 37.15625 43.457031 37.472656 C 43.296875 37.792969 43.109375 38.089844 42.890625 38.371094 C 42.675781 38.652344 42.433594 38.910156 42.164062 39.144531 C 41.894531 39.375 41.605469 39.582031 41.300781 39.757812 Z M 41.300781 39.757812 " fill-opacity="1" fill-rule="nonzero"/></g></g></g></svg>
