<svg xmlns="http://www.w3.org/2000/svg" width="240.742" height="412.403" viewBox="0 0 240.742 412.403"><defs><style>.a{fill:#fff;}.b{fill:#645d5b;}.c{fill:#ad7b59;}.d{fill:#211715;}.e{fill:#f4b3b3;}</style></defs><path class="a" d="M31.015,138.974a7.043,7.043,0,0,0-3.237-3.7c-.73-.306-1.539-.394-2.27-.7a7.192,7.192,0,0,1-1.717-1.106c-2.052-1.687-6.03-7.312-6.681-9.878,0,0-.075-.3-.2-.773-.233-.229-.495-.49-.837-.823-1.151-1.124-2.992-3.2-3.342-4.775a4.174,4.174,0,0,1,5.226-4.921,3.439,3.439,0,0,1,1.4-3.5,3.906,3.906,0,0,1,4.1-.3,2.969,2.969,0,0,1,1.348-3.3,4.132,4.132,0,0,1,4.689-.272c-.217-2.148.707-3.829,2.829-4.225a4.513,4.513,0,0,1,5,3.129l.37,1.709c.19-.1.38-.2.565-.288,2.24-1.077,5.236-1.567,7.2-.046a7.069,7.069,0,0,1,1.756,2.425c1.436,2.731,2.915,5.671,2.587,8.738-.252,2.353-1.54,4.447-2.394,6.654s-1.213,4.905.229,6.782c0,0,3.085,4.507-4.915,9.1C33.519,144.193,31.015,138.974,31.015,138.974Z"/><path class="b" d="M238.559,318.78c.994-4.228-1.1-7.4-4.744-10.208-3.784-2.916-9.715-3.908-14.368-4.987-1.363-.316-3.449.152-4.006,1.435a2.706,2.706,0,0,0-.107,1.618c.59,2.839-.344,7.281-.914,10.2s-2.679,8.152-5.346,9.462c-2.324,1.141-4.586.479-5.091,3.019a27.5,27.5,0,0,1,1.5,15.748,45.448,45.448,0,0,0-1.031,6.7,8.788,8.788,0,0,0,2.031,6.29c2.694,2.854,6.812,2.373,10.176.351,4.134-2.486,9.107-12.276,13.077-22.714C231.959,329.846,237.277,324.233,238.559,318.78Z"/><path class="b" d="M46.337,410.335c4.4.689,7.482-1.694,10.075-5.644,2.69-4.1,3.246-10.241,3.989-15.085.217-1.419-.423-3.517-1.779-3.987a2.784,2.784,0,0,0-1.663.015c-2.858.824-7.476.213-10.5-.145s-8.548-2.109-10.094-4.735c-1.348-2.29-.845-4.654-3.483-4.975a28.21,28.21,0,0,1-15.994,2.757A46.664,46.664,0,0,0,9.956,378a9.017,9.017,0,0,0-6.278,2.565c-2.711,2.977-1.9,7.153.43,10.437,2.863,4.037,13.264,8.366,24.25,11.619C34.505,404.441,40.659,409.445,46.337,410.335Z"/><path class="a" d="M201.038,322.891q-.405.792-.824,1.577a58.752,58.752,0,0,1,6.143,1.924l1.183.455a8,8,0,0,0,1.534-.55c2.667-1.31,4.775-6.547,5.346-9.462s1.5-7.358.914-10.2a3.327,3.327,0,0,1-.063-.435l-1.031-.623q-2.722-1.711-5.58-3.193c-.211,1.123-.433,2.249-.729,3.3A93.782,93.782,0,0,1,201.038,322.891Z"/><path class="a" d="M38.034,372.81c-.587,1.725-1.674,4.288-2.086,5.762,0,0-.1.273-.253.7a8.349,8.349,0,0,0,.668,1.481c1.546,2.626,7.067,4.378,10.094,4.735,2.914.345,7.3.925,10.177.231.129-.4.212-.642.212-.642.494-1.126,1.026-2.723,1.433-3.883,0,0,.337-.957.718-2.03a86.431,86.431,0,0,1-20.628-7.19l-.239.547Q38.085,372.662,38.034,372.81Z"/><path class="a" d="M73.348,358.606A186.837,186.837,0,0,1,63.542,379.8c-7.111-.444-20.445-4.826-27.888-9.333,4.964-19.329,9.145-40.511,14.683-59.687,1.909-6.609,3.83-13.272,5.465-19.646,1.481-5.778,4.034-13.445,5.812-18.556,3.168-10.691,15.362-38.049,23.8-54.421l-.131-.357a70.913,70.913,0,0,1-3.085-9.741,61.806,61.806,0,0,1-1.249-7.169c10.627,1.624,29.8,1.071,43.6-1.2a37.45,37.45,0,0,0,11.889-3.667,7.3,7.3,0,0,0,1.933-1.613c8.79,9.52,8.934,27.858,3.806,36.947a17.4,17.4,0,0,1-3.234,4.9c2.083,11.206,4.971,21.842,7.014,29.549,2.185,3.741,10.555,6.137,22.963,12.148,15.168,7.349,26.905,13.345,40.259,21.8-.413,1.918-.709,4.054-1.241,5.946a98.192,98.192,0,0,1-8.968,21.072c-13.989-2.627-51.033-17.67-66.717-25.4-4.242-2.093-9.807-5.216-12.864-8.825-3.728-4.509-8.475-16.765-10.99-21.99l-1.06-1.163c-2.855,4.171-5.687,8.61-10.308,14.5-1.29,2.086-2.963,4.6-3.259,7.037A453.908,453.908,0,0,1,73.348,358.606Z"/><path class="a" d="M91.431,80.688a45.642,45.642,0,0,1,2.834,7.778s5.524,6.889,14.413,4.444,9.917-9.673,9.917-9.673a47.149,47.149,0,0,1-10.42-22.311,14.6,14.6,0,0,0,5.7-11.332c.006-2.031-.6-4.307-2.378-5.291a4.363,4.363,0,0,0-3.884-.012,6.374,6.374,0,0,0-1.984,1.491l-1.793-.316c-2.519-.445-11.8-7.611-12.852-10.111l-.173-.5c-7.678-.392-14.737-.862-20.042-1.324.095,3.436.159,5.824.159,5.824.121,4.475.3,10.529-2.956,13.607-1.413,1.338-3.52,2.615-3.234,4.54.218,1.466,1.747,2.282,2.816,3.31A7.488,7.488,0,0,1,69.443,63.9c.291,2.647,1.391,8.571,3.263,11.669a9.4,9.4,0,0,0,5.431,4.469c4.088,1.238,9.706,1.375,12.869,0"/><path class="c" d="M113.734,76.3a47.028,47.028,0,0,1-5.559-15.373,14.6,14.6,0,0,0,5.7-11.332c.006-2.031-.6-4.307-2.378-5.291a4.363,4.363,0,0,0-3.884-.012,6.39,6.39,0,0,0-1.985,1.491l-1.792-.316c-2.519-.445-11.8-7.611-12.852-10.111,0,0-.078-.192-.207-.5,14.878.759,32.09,1.223,43.387.756a3.064,3.064,0,0,0,1.667-.584,47.052,47.052,0,0,1,.469,7.334c-.21,4.25,2.05,17.6,3.26,21.68,2.26,7.65,6.33,15.71,4.64,23.98-.888,4.38-3.517,9.416-9.919,9.7a27.452,27.452,0,0,0-2.707-2.915c-1-.92-2.455-1.6-3.368-3-1.616-3.018-3.43-7.162-4.566-7.979a4.936,4.936,0,0,0-5.025-.556A46.767,46.767,0,0,1,113.734,76.3Z"/><path class="d" d="M49.373,128.8c-2.074-2.952.871-6.844,1.845-9.68,1.385-4.032.1-7.873-1.756-11.51a10.2,10.2,0,0,0-3.272-4.331,7.737,7.737,0,0,0-5.3-.9c-2.96.433-7.307,2.305-7.93,5.606a4.817,4.817,0,0,0,1.976,4.9,8.135,8.135,0,0,0,2.523.819,2.238,2.238,0,0,0,.607.136c.549-.112-.24-.141-.1-.265-.016.014.33,1.548.345,1.658a2.014,2.014,0,0,0,2.461,1.4,2.053,2.053,0,0,0,1.4-2.46,7.069,7.069,0,0,0-.9-2.886,3.31,3.31,0,0,0-2.354-1.35,5.909,5.909,0,0,1-1.962-.5c.357.269-.083-.142-.077-.309.012-.37-.056-.283.1-.566.664-1.237,2.982-1.946,4.249-2.2a3.272,3.272,0,0,1,3.913,1.62,21.519,21.519,0,0,1,2.54,5.907,8.669,8.669,0,0,1-.814,5.44c-1.551,3.6-3.518,7.833-.944,11.5,1.469,2.091,4.939.094,3.454-2.018Z"/><path class="d" d="M39.261,103.3a6.565,6.565,0,0,0-7.29-4.549,5.543,5.543,0,0,0-4.466,6.177l3.009-1.727a6.28,6.28,0,0,0-6.443.118,5.047,5.047,0,0,0-2.6,5.177l3.009-1.727c-4.379-1.993-9.232,1.1-8.444,6.059l2.46-2.46a6.265,6.265,0,0,0-7.636,4.361c-.855,3.257,1.233,6.027,3.376,8.244,1.861,1.927,4.328,4.881,7.188,4.972,3.6.114,6.033-3.258,5.694-6.651l-2.532,1.928c4.254,1.231,8.071-1.88,8.464-6.109l-2.532,1.928c1.98.621,4.642.546,6.306-.827a4.937,4.937,0,0,0,.984-6.277c-1.209-2.274-4.663-.256-3.454,2.019.931,1.752-1.828,1.524-2.772,1.228a2.027,2.027,0,0,0-2.532,1.929,2.613,2.613,0,0,1-3.4,2.252,2.014,2.014,0,0,0-2.532,1.929c.122,1.223-.431,3.241-2.045,2.479-1.385-.653-2.716-2.319-3.788-3.4-.961-.972-2.517-2.421-2.638-3.865a2.21,2.21,0,0,1,2.786-2.281,2.029,2.029,0,0,0,2.46-2.46c-.215-1.352,1.544-2.008,2.569-1.542,1.193.543,3.224-.058,3.009-1.727-.109-.85-.132-1.29.622-1.723a2.192,2.192,0,0,1,2.405-.118,2.018,2.018,0,0,0,3.01-1.727c-.078-1.051.007-2.042,1.2-2.26a2.5,2.5,0,0,1,2.7,1.7c.787,2.439,4.651,1.4,3.857-1.064Z"/><path class="d" d="M16.452,113.671a95.826,95.826,0,0,0,6.441,8.41,2.01,2.01,0,0,0,2.829,0,2.051,2.051,0,0,0,0-2.828c-.6-.7-1.19-1.413-1.766-2.135q-.2-.255-.4-.512l-.241-.309c-.042-.054-.279-.359-.083-.106s-.04-.052-.081-.106l-.234-.306q-.212-.278-.421-.556c-.884-1.174-1.754-2.36-2.586-3.571a2,2,0,1,0-3.454,2.019Z"/><path class="d" d="M22.178,110c2.206,2.7,4.579,5.254,6.785,7.951a2.006,2.006,0,0,0,2.829,0,2.056,2.056,0,0,0,0-2.828c-2.207-2.7-4.58-5.255-6.786-7.952a2.006,2.006,0,0,0-2.828,0,2.056,2.056,0,0,0,0,2.829Z"/><path class="d" d="M28.609,106.676c-.659-.5-.182-.139-.031-.01q.188.16.369.328c.261.24.516.488.766.74.6.6,1.171,1.229,1.726,1.871q.446.513.872,1.041c.124.154.243.311.368.464-.454-.56.042.059.149.2a14.472,14.472,0,0,1,1.19,1.839,2.016,2.016,0,0,0,2.737.717,2.045,2.045,0,0,0,.717-2.736,23.906,23.906,0,0,0-3.2-4.358,24.857,24.857,0,0,0-3.64-3.554,2,2,0,0,0-1.542-.2,2.039,2.039,0,0,0-1.2.919,2.017,2.017,0,0,0-.2,1.541,2.354,2.354,0,0,0,.919,1.2Z"/><path class="d" d="M15.182,124.12a16.7,16.7,0,0,0,2.113,4.372,40.013,40.013,0,0,0,3.382,4.635,10.872,10.872,0,0,0,4.546,3.469c.5.174,1.026.259,1.527.429a2.763,2.763,0,0,1,.921.523,7.538,7.538,0,0,1,1.617,2.435,2.019,2.019,0,0,0,2.736.718,2.039,2.039,0,0,0,.718-2.736c-1.068-2.164-2.549-4.046-4.929-4.8a7.1,7.1,0,0,1-2.608-1.115,11.569,11.569,0,0,1-1.351-1.351c-.6-.676-.965-1.143-1.362-1.679q-.8-1.077-1.525-2.206c-.452-.7-.883-1.425-1.27-2.168-.105-.2-.208-.407-.3-.614-.048-.1-.237-.559-.052-.1a7.965,7.965,0,0,1-.3-.882c-.666-2.484-4.526-1.43-3.857,1.063Z"/><path class="e" d="M184.015,136.677a108.817,108.817,0,0,0-10.174-9.316c-3.888-3.184-7.942-6.21-11.612-8.841a162.513,162.513,0,0,0-23.709-15.086c-2.173-2.968-4.219-6.126-6.943-8.632-1-.92-2.455-1.6-3.368-3-1.616-3.018-3.43-7.162-4.566-7.979a4.928,4.928,0,0,0-4.962-.583,87.447,87.447,0,0,1-25.532,6.181.652.652,0,0,0-.551.477,49.378,49.378,0,0,0-1.2,6.349c-4.862.148-8.4,4.49-11.236,8.44-8.315,11.574-15.121,20.819-25.508,31.634a31.417,31.417,0,0,1-5-7.186c-4.167,1.556-19.347,9.445-20.513,10.723-.907.993-.767,1.6-.5,2.116a140.148,140.148,0,0,0,14.941,23.236c2.222,2.888,6.683,3.312,8.111,3.111,7.443-1.047,16.01-5.935,23.529-9.015,1.178,7.866,3.135,14.19,3.757,21.755.8,9.7-.566,18.519,1.185,19.7,10.445,1.778,30.241,1.256,44.383-1.074a37.45,37.45,0,0,0,11.889-3.667,7.143,7.143,0,0,0,2.334-2.148,2.537,2.537,0,0,0,.172-.318c5.779,3.621,15.279,8.555,21.217,10.411a2.162,2.162,0,0,0,2.514-1.063q12.639-25.21,23.689-51.178C187.625,148.745,188.1,141.021,184.015,136.677Zm-29.806,19.011c-5.274,11.124-9.857,20.593-14.322,31.692.735-13.06-2.863-20.723-.122-32.692,1.05-4.587,2.006-6.278,3.5-11.253,1.236.746,2.449,1.481,3.73,2.207a58.4,58.4,0,0,0,5.88,2.935C156.234,150.019,154.706,154.639,154.209,155.688Z"/><path class="d" d="M140.241,230.823a13.5,13.5,0,0,1-1.1,1.944,24.284,24.284,0,0,1-2.014,2.523c-1.867,2.1-3.907,4.036-5.959,5.95-5,4.666-10.216,9.128-14.992,14.032-7.543,7.747-12.857,17.08-19.365,25.637-1.908,2.509-3.879,5.225-4.735,8.312-.654,2.36-1.026,4.836-1.579,7.226q-1.8,7.76-3.9,15.444c-3.1,11.395-6.581,22.692-10.53,33.82-4.01,11.3-8.417,22.581-14.249,33.079l1.727-.991a54.608,54.608,0,0,1-13.288-3.072,68.076,68.076,0,0,1-13.591-5.988L37.582,371c3.325-12.97,6.157-26.058,9.3-39.072,3.19-13.218,7.2-26.193,10.615-39.349,4.646-17.908,11.592-35.055,19.259-51.853C80.919,231.6,85.2,222.486,90.047,213.7c1.244-2.256-2.209-4.277-3.454-2.019-4.28,7.765-8.1,15.791-11.825,23.834-4.044,8.733-7.948,17.546-11.482,26.5-3.253,8.238-6.061,16.734-8.5,25.243-1.829,6.384-3.452,12.828-5.287,19.213-1.851,6.437-3.632,12.885-5.249,19.385C40.6,340.513,37.477,355.3,33.725,369.934a2.049,2.049,0,0,0,.919,2.259,73.149,73.149,0,0,0,14.547,6.392A58.69,58.69,0,0,0,63.542,381.8a1.969,1.969,0,0,0,1.727-.99,210.982,210.982,0,0,0,13-29.469c4.111-11.126,7.71-22.444,10.929-33.858q2.259-8.009,4.234-16.093.88-3.633,1.688-7.282c.252-1.141.452-2.3.711-3.436a15.17,15.17,0,0,1,2.072-4.419c1.614-2.645,3.674-5.03,5.47-7.559,1.5-2.1,2.938-4.246,4.383-6.386a103.9,103.9,0,0,1,9.07-11.9c5.131-5.645,10.974-10.6,16.562-15.78,3.931-3.643,8.71-7.615,10.711-12.745a2.015,2.015,0,0,0-1.4-2.46,2.047,2.047,0,0,0-2.46,1.4Z"/><path class="d" d="M141.021,143.934c-.939,2.969-2.089,5.87-2.862,8.889a45.25,45.25,0,0,0-1.414,9.7c-.2,5.861.845,11.667,1.144,17.507a65.862,65.862,0,0,1-.163,9.537,9.679,9.679,0,0,1-.576,3.1c-.624,1.323-2.408,2.04-3.648,2.575-5.467,2.361-11.741,2.978-17.609,3.581-6.274.644-12.586.976-18.893,1-2.964.01-5.929-.051-8.887-.223-1.211-.071-2.421-.16-3.628-.277-.249-.024-3.489-.534-3.531-.444l.455.326q.274.381.1.1c.1-.009.088.386-.018-.1-.037-.17-.166-.814-.145-.657a27.06,27.06,0,0,1-.141-3.745c0-3.154.09-6.307,0-9.461a111.614,111.614,0,0,0-3.224-21.548,110.747,110.747,0,0,1-2.206-11.009,20.243,20.243,0,0,1,1.153-9.027c1.233-3.534,3.443-6.712,5.17-10.018a124.167,124.167,0,0,0,5.323-11.557,2.015,2.015,0,0,0-1.4-2.461,2.049,2.049,0,0,0-2.46,1.4,113.661,113.661,0,0,1-4.92,10.6c-1.646,3.151-3.638,6.165-5,9.456a25.956,25.956,0,0,0-1.961,9.306,42.9,42.9,0,0,0,1.429,9.862c1.54,7.193,3.425,14.314,3.93,21.681.251,3.655.209,7.317.172,10.978-.024,2.351-.237,4.973.416,7.264a3.636,3.636,0,0,0,1.515,2.221c1.093.625,2.877.565,4.106.7,2.8.317,5.61.477,8.423.561a183.384,183.384,0,0,0,19.822-.532,105.786,105.786,0,0,0,18.813-2.7c3.228-.858,7.111-2.042,9.393-4.622,1.935-2.186,1.989-5.406,2.16-8.182.447-7.258-.823-14.352-1.106-21.577a41.543,41.543,0,0,1,.838-10.507c.8-3.644,2.157-7.095,3.279-10.641.779-2.461-3.082-3.513-3.857-1.064Z"/><path class="d" d="M73.2,158c-6.549,2.8-12.917,6.426-19.917,8a9,9,0,0,1-6.115-.475,8.006,8.006,0,0,1-2.925-2.717q-1.664-2.192-3.27-4.425c-1.918-2.679-3.753-5.417-5.475-8.227q-1.333-2.178-2.58-4.409-.649-1.162-1.276-2.337-.323-.6-.638-1.208-.213-.41-.425-.822-.342-.686-.158-.3c-1.033-.02.248.691.064.292.01.022.123-.2.157-.184-.017-.009.675-.478-.147.107.089-.064.176-.131.268-.19.6-.381,1.2-.761,1.812-1.12,1.822-1.065,3.684-2.066,5.551-3.051q3.453-1.824,6.96-3.542c1.04-.508,2.083-1.009,3.136-1.489q.64-.292,1.285-.572c.541-.232-.357.14.147-.06.178-.07.355-.141.534-.209l-2.258-.919a29.317,29.317,0,0,0,5.31,7.59,2.02,2.02,0,0,0,2.828,0,218.469,218.469,0,0,0,14.557-16.839q3.315-4.251,6.491-8.607c2.085-2.846,4.046-5.812,6.251-8.567,2.015-2.517,4.592-5.294,8.028-5.475,2.561-.135,2.577-4.136,0-4-7.4.39-11.552,7.5-15.44,12.873-4.347,6.007-8.783,11.949-13.562,17.622q-4.409,5.232-9.153,10.164h2.828a25.922,25.922,0,0,1-4.685-6.78,2,2,0,0,0-2.258-.919,113.326,113.326,0,0,0-12.248,5.87c-2.1,1.1-4.187,2.213-6.232,3.405-1.4.816-2.962,1.622-3.754,3.108-.9,1.69-.14,3.1.66,4.631q1.38,2.648,2.874,5.235c1.869,3.229,3.885,6.37,6.021,9.428q1.616,2.311,3.308,4.568A24.183,24.183,0,0,0,43.22,167.7a12.1,12.1,0,0,0,7.991,2.659c3.882-.154,7.852-1.806,11.388-3.277,4.253-1.77,8.382-3.818,12.617-5.627a2.012,2.012,0,0,0,.718-2.736A2.053,2.053,0,0,0,73.2,158Z"/><path class="d" d="M89.7,81.7q.2.41.393.825c.058.128.116.256.172.385.024.056.049.112.073.169.084.2.065.152-.055-.133a6.4,6.4,0,0,0,.386.964q.171.444.332.891c.5,1.381.936,2.784,1.331,4.2a2,2,0,0,0,3.857-1.064,46.75,46.75,0,0,0-3.035-8.255,2.012,2.012,0,0,0-2.736-.718A2.051,2.051,0,0,0,89.7,81.7Z"/><path class="d" d="M106.424,48c.871-1.3,2.86-2.983,4.34-1.8,1.277,1.02,1.252,3.347,1.014,4.976a12.742,12.742,0,0,1-6.731,9.351c-2.288,1.183-.267,4.636,2.019,3.454a16.58,16.58,0,0,0,8.812-14.391c0-2.965-1.145-6.188-4.1-7.348-3.525-1.382-6.9.886-8.805,3.739A2,2,0,0,0,106.424,48Z"/><path class="d" d="M106.665,271.549c3.244,6.777,5.674,14.093,9.829,20.4,4.314,6.545,12.205,10.008,19.083,13.21,14.015,6.526,28.416,12.365,42.978,17.552,6.484,2.309,13.1,4.691,19.877,5.981a2.066,2.066,0,0,0,2.258-.919,112.8,112.8,0,0,0,6.523-13.718c.9-2.285,1.7-4.606,2.4-6.961.659-2.241,1.013-4.536,1.492-6.818a2.074,2.074,0,0,0-.919-2.258,389.683,389.683,0,0,0-37.692-20.547c-6.037-2.941-12.23-5.512-18.3-8.369-1.01-.475-2.013-.967-2.988-1.51-.42-.233-.835-.475-1.24-.733-.186-.119-.372-.241-.554-.367-.06-.041-.654-.493-.419-.3a8.732,8.732,0,0,1-.821-.753c-.118-.125-.233-.252-.34-.386.292.366-.05-.057-.068-.124-.325-1.209-.667-2.621-1.007-3.907-2.155-8.157-4.186-16.348-5.764-24.638-.481-2.526-4.337-1.457-3.857,1.063,1.442,7.577,3.258,15.074,5.21,22.534q.609,2.323,1.227,4.643a7.711,7.711,0,0,0,1.484,3.322,15.42,15.42,0,0,0,4.581,3.349c5.535,2.968,11.494,5.149,17.162,7.851q10.212,4.869,20.243,10.127,10.792,5.7,21.126,12.2l-.919-2.259c-.48,2.282-.833,4.576-1.492,6.817-.649,2.206-1.4,4.383-2.227,6.528a104.68,104.68,0,0,1-6.289,13.2l2.259-.919A122.09,122.09,0,0,1,182.62,319.9c-7.409-2.56-14.732-5.37-22-8.3-6.869-2.768-13.7-5.648-20.438-8.714-2.766-1.258-5.529-2.533-8.232-3.921-3.967-2.037-8.261-4.367-11.151-7.855-2.352-2.839-4.053-6.874-5.637-10.321-1.717-3.737-3.264-7.554-5.04-11.264-1.111-2.32-4.561-.294-3.454,2.019Z"/><path class="a" d="M157.384,205.857a70.913,70.913,0,0,0-3.8,9.163,29.779,29.779,0,0,1-2.949,6.092c-1.639,2.73-2.95,4.039-5.926,3.989-2.622-.045-5.448.3-7.222-1.538-2.471.432-5.286.1-6.721-2.1-2.019.752-3.5-.259-5.435-1.482a4.216,4.216,0,0,1-1.414-1.85,5.874,5.874,0,0,1,.218-3.154,15.046,15.046,0,0,1,2.452-4.64c-3.708.229-2.221-6.111-.067-8.85a17.555,17.555,0,0,1,4.419-3.67c3.263-2.04,7.258-.394,10.627-2.254,0,0,4.719-4.809,10.719-1.475S157.384,205.857,157.384,205.857Z"/><path class="d" d="M68.931,39.355c.1,3.627.556,8.41-1.753,11.51-1.15,1.545-2.988,2.4-3.915,4.158-1.174,2.226-.24,4.515,1.543,6.062a9.507,9.507,0,0,1,2.161,2.179,6.444,6.444,0,0,1,.746,2.645,44.838,44.838,0,0,0,1.261,5.753c1.242,4.241,3.469,8.272,7.763,10a22.56,22.56,0,0,0,7.585,1.35,17.72,17.72,0,0,0,7.216-1.039,2.065,2.065,0,0,0,1.4-2.461,2.011,2.011,0,0,0-2.46-1.4c-3.6,1.482-8.155,1.133-11.805,0-3.632-1.128-5.121-4.849-6.033-8.207-.994-3.661-.773-7.7-3.665-10.508-.619-.6-1.635-1.113-2.083-1.858-.313-.52-.035-.809.362-1.234,1.308-1.4,2.843-2.38,3.808-4.1,2.156-3.842,1.988-8.59,1.873-12.851-.069-2.569-4.069-2.579-4,0Z"/><path class="d" d="M140.557,193.839c-1.877.988-4.034.683-6.118.9a11.692,11.692,0,0,0-3.7.927,15.929,15.929,0,0,0-3.1,2.024,12.915,12.915,0,0,0-5.319,9.905c-.023,2.033.915,4.135,3.058,4.636a2,2,0,1,0,1.063-3.857c-.554-.129.148.1-.135-.035.233.2.272.223.115.082-.142-.156-.116-.118.077.116-.077-.206-.093-.363-.032.011-.028-.176-.1-.371-.146-.546.133.525,0-.093,0-.243,0-.167,0-.335.012-.5.008-.116.018-.232.03-.347q-.052.354,0,0c.036-.182.068-.365.109-.546a11.939,11.939,0,0,1,.435-1.468c.006-.015.233-.586.084-.237.1-.231.208-.458.322-.682a9.9,9.9,0,0,1,.634-1.075c.063-.092.127-.182.194-.271-.121.162-.095.137.075-.073.193-.2.376-.411.575-.607a10.174,10.174,0,0,1,5.89-3.232c2.73-.242,5.384-.1,7.886-1.422a2,2,0,1,0-2.019-3.454Z"/><path class="d" d="M129.767,204.962a24.348,24.348,0,0,0-4.808,4.231,17.053,17.053,0,0,0-2.8,5.406,6.076,6.076,0,0,0,1.726,6.778c2.072,1.679,4.764,2.867,7.415,2.017l-2.258-.919c2.13,3.007,5.53,3.567,8.979,3.017l-1.946-.515c2.366,2.256,5.576,2.149,8.636,2.124a7.787,7.787,0,0,0,6.6-3.385c3.751-5.062,4.9-11.353,7.8-16.85,1.2-2.274-2.25-4.3-3.454-2.019a69.923,69.923,0,0,0-3.943,9.475,27.373,27.373,0,0,1-1.966,4.345,13.783,13.783,0,0,1-2.463,3.628,3.727,3.727,0,0,1-2.763.8,15.562,15.562,0,0,1-4.424-.258c-.743-.226-1.149-.815-1.839-1.106a6.329,6.329,0,0,0-2.488-.009,3.81,3.81,0,0,1-3.277-1.27,2.061,2.061,0,0,0-2.258-.919A4.347,4.347,0,0,1,126.112,218c-.832-1-.016-2.666.425-3.681,1.122-2.586,3.013-4.255,5.248-5.9a2.06,2.06,0,0,0,.718-2.736,2.015,2.015,0,0,0-2.736-.718Z"/><path class="a" d="M75.616,21.254c1.26-7.9,6.413-13.18,13.884-16.484s17.491-3.453,25.483-1.758C119.657,4,125.7,6.6,129.246,9.8c5.606,5.047,8.861,16.2,8.281,22.154a3.849,3.849,0,0,1-3.36,3.656c-20.736.857-61.4-1.421-70.976-2.908-1.871-.291-3.3-.6-3.649-2.346-.194-.976.955-2.336,1.723-2.778a24.431,24.431,0,0,1,9.555-3.056"/><path class="d" d="M77.545,21.786A19.03,19.03,0,0,1,86.824,8.408c5.832-3.538,12.643-4.644,19.384-4.437a37.473,37.473,0,0,1,19.371,5.547c4.919,3.187,7.546,8.7,9.014,14.214a24.163,24.163,0,0,1,.979,7.608c-.056.912-.374,2.051-1.405,2.269a19.952,19.952,0,0,1-3.461.111c-5.375.126-10.754.087-16.128-.014q-17.376-.329-34.729-1.49c-4.242-.282-8.486-.59-12.715-1.03q-1.121-.115-2.241-.252l-.451-.057c-.415-.052.076.012-.028,0-.4-.058-.8-.115-1.2-.186a4.149,4.149,0,0,1-1.52-.408c-.266-.176-.2-.119-.015-.362.883-1.169,2.7-1.728,4.042-2.2a22.065,22.065,0,0,1,5.1-1.2,2.056,2.056,0,0,0,2-2,2.014,2.014,0,0,0-2-2,26.54,26.54,0,0,0-5.963,1.269A16.606,16.606,0,0,0,59.519,26.4a4.762,4.762,0,0,0-1.828,4.8,4.706,4.706,0,0,0,3.51,3.15,35.2,35.2,0,0,0,5.467.79c2.067.222,4.138.4,6.21.57,12.216.986,24.475,1.557,36.725,1.885,6.224.166,12.453.261,18.679.173q2.031-.028,4.06-.09a8.425,8.425,0,0,0,4.4-.85c2.929-1.818,3.046-5.468,2.738-8.528-.655-6.506-3.047-13.319-7.309-18.349a24.752,24.752,0,0,0-8.622-6.1A39.641,39.641,0,0,0,112.825.6C99.036-1.5,80.947,1.562,75,16.043a21.661,21.661,0,0,0-1.312,4.68,2.059,2.059,0,0,0,1.4,2.46,2.017,2.017,0,0,0,2.46-1.4Z"/><path class="d" d="M89.26,36.364a8.658,8.658,0,0,0,1.74,2.3,33.787,33.787,0,0,0,2.679,2.494,50.181,50.181,0,0,0,6.681,4.9,9.66,9.66,0,0,0,2.947,1.341,2,2,0,1,0,1.063-3.857,3.091,3.091,0,0,1-.4-.107c-.072-.024-.143-.054-.214-.079-.359-.123.395.192.126.053-.4-.206-.8-.4-1.194-.624-1.011-.582-1.98-1.237-2.928-1.916q-.8-.573-1.581-1.174c.317.244-.015-.014-.14-.113s-.241-.191-.361-.287q-.386-.309-.767-.626c-.948-.789-1.877-1.608-2.746-2.485-.378-.383-.726-.785-1.08-1.19-.2-.232.279.4.062.078-.054-.08-.113-.157-.165-.238a3.35,3.35,0,0,1-.266-.484,2.015,2.015,0,0,0-2.737-.717,2.05,2.05,0,0,0-.717,2.736Z"/><path class="d" d="M70.675,69.27a11.567,11.567,0,0,0,4.5-.512A7.162,7.162,0,0,0,77.9,67.2a2,2,0,0,0-2.829-2.829,3.106,3.106,0,0,1-.26.227l.4-.313a5.249,5.249,0,0,1-1.114.635l.478-.2a8.311,8.311,0,0,1-2.084.553l.532-.071a11.684,11.684,0,0,1-2.35.067,2,2,0,0,0-2,2,2.049,2.049,0,0,0,2,2Z"/><path class="d" d="M75.923,46.52c-.422,1.436-.154,4.737,2.426,5.013,3.411-.027,3.6-4.018,2.454-5.893C79.865,44.105,77.1,43.471,75.923,46.52Z"/><path class="d" d="M208.112,304.355q2.614,1.38,5.118,2.952a2.019,2.019,0,0,0,2.737-.718,2.042,2.042,0,0,0-.718-2.736q-2.5-1.572-5.118-2.952a2.11,2.11,0,0,0-1.541-.2,2,2,0,0,0-.478,3.656Z"/><path class="d" d="M199.677,326.394a58.07,58.07,0,0,1,6.148,1.926,2.013,2.013,0,0,0,1.541-.2,2,2,0,0,0,.718-2.737,2.292,2.292,0,0,0-1.195-.919,58.16,58.16,0,0,0-6.149-1.926,2,2,0,0,0-1.063,3.857Z"/><path class="d" d="M240.487,319.312c1.177-5.464-1.867-9.889-6.246-12.89a24.992,24.992,0,0,0-7.516-3.178,48.216,48.216,0,0,0-7.56-1.711c-2.558-.269-5.544,1.067-5.848,3.876a33.015,33.015,0,0,0,.2,3.427,24.918,24.918,0,0,1-.366,3.9,34.4,34.4,0,0,1-1.59,6.709c-.63,1.667-1.555,3.8-3.061,4.869-1.784,1.263-4.162.718-5.623,2.65a3.592,3.592,0,0,0-.492,3.751,27.727,27.727,0,0,1,1.286,4.734,26.225,26.225,0,0,1-.079,8.851c-.5,2.954-1.383,5.949-1.087,8.974a9.827,9.827,0,0,0,3.382,6.925,9.034,9.034,0,0,0,7.533,1.619c4.647-.906,7.609-4.355,10.017-8.164,3.587-5.678,5.83-11.924,8.475-18.052,2.433-5.636,7.057-10.242,8.571-16.292.625-2.5-3.231-3.563-3.857-1.064-1.314,5.251-5.279,9.474-7.655,14.249-1.335,2.683-2.26,5.564-3.451,8.312-1.157,2.669-2.4,5.3-3.8,7.857-1.975,3.606-4.244,7.787-8.316,9.033-2.046.626-4.365.478-5.762-1.344-1.536-2-1.322-4.869-.917-7.2A52.342,52.342,0,0,0,207.99,338.8a29.5,29.5,0,0,0-2.079-10.018v1.063c.146-.59.259-.586.874-.754a22.833,22.833,0,0,0,2.49-.716,8.851,8.851,0,0,0,4.06-3.6,26.476,26.476,0,0,0,3.547-10.215,30.638,30.638,0,0,0,.633-6.273,13.745,13.745,0,0,0-.149-1.556c-.035-.24-.224-.731-.085-.938.23-.342,1.239-.34,1.587-.3a45.314,45.314,0,0,1,5.641,1.3,28.666,28.666,0,0,1,5.964,2.052c3.491,1.772,7.074,5.142,6.157,9.4C236.09,320.758,239.945,321.831,240.487,319.312Z"/><path class="d" d="M45.805,412.263a10.711,10.711,0,0,0,7.257-1.283,16.635,16.635,0,0,0,5.27-5.583c2.805-4.56,3.523-10.561,4.069-15.791.257-2.462-1.02-5.474-3.655-6.013-1.3-.265-2.486.261-3.757.384a24.507,24.507,0,0,1-4-.019,35.7,35.7,0,0,1-6.559-.9,13.3,13.3,0,0,1-5.824-2.7c-1.487-1.424-1.266-3.835-2.753-5.315a4.073,4.073,0,0,0-3.5-1.189,18.806,18.806,0,0,0-2.045.917c-.8.33-1.621.616-2.448.865a26.652,26.652,0,0,1-8.732,1.058c-3.182-.122-6.363-.925-9.555-.666A10.833,10.833,0,0,0,2.134,379.3a8.925,8.925,0,0,0-1.965,7.63c.9,4.928,4.607,8.011,8.766,10.282,6.077,3.32,12.713,5.351,19.275,7.453,6.085,1.949,11.21,6.5,17.6,7.6a2.059,2.059,0,0,0,2.46-1.4,2.016,2.016,0,0,0-1.4-2.46c-5.512-.944-10.2-4.618-15.29-6.737-2.936-1.223-6.061-1.977-9.066-3.016-2.815-.974-5.608-2.028-8.315-3.274-3.854-1.774-8.228-3.84-9.728-7.868-.825-2.216-.66-4.721,1.374-6.221,2.268-1.672,5.415-1.394,8.043-1.1a42.981,42.981,0,0,0,10.167.295,31.335,31.335,0,0,0,9.837-2.978l-1.541.2c.62.1.692.07.926.608.4.919.605,1.908,1.036,2.823a8.643,8.643,0,0,0,3.722,3.684c3.356,1.9,7.067,2.547,10.846,2.946a30.5,30.5,0,0,0,6.462.172c.513-.055,1.029-.122,1.535-.227.216-.046.811-.326,1-.253.506.2.578,1.26.563,1.7a43.161,43.161,0,0,1-.887,5.979,29.425,29.425,0,0,1-1.718,6.412c-1.505,3.514-4.72,7.442-8.964,6.854a2.069,2.069,0,0,0-2.46,1.4A2.013,2.013,0,0,0,45.805,412.263Z"/><path class="d" d="M56.35,380.663c-.431,1.23-.837,2.471-1.343,3.674l.2-.478-.09.21a1.477,1.477,0,0,0-.238.743,1.526,1.526,0,0,0,.036.8,2,2,0,0,0,2.46,1.4,1.938,1.938,0,0,0,1.2-.92c.622-1.425,1.12-2.894,1.634-4.361a2,2,0,0,0-2.938-2.258,2.217,2.217,0,0,0-.919,1.195Z"/><path class="d" d="M36.2,371.991c-.665,2.037-1.6,3.986-2.181,6.05a2,2,0,1,0,3.857,1.063c.583-2.063,1.516-4.013,2.181-6.05a2.015,2.015,0,0,0-1.4-2.46,2.045,2.045,0,0,0-2.46,1.4Z"/><path class="d" d="M80.268,208.59a63.109,63.109,0,0,0,3.084,9.741,2,2,0,0,0,3.857-1.063,63.144,63.144,0,0,1-3.084-9.741,2.011,2.011,0,0,0-2.46-1.4,2.05,2.05,0,0,0-1.4,2.46Z"/><path class="d" d="M133.793,99.729a11.938,11.938,0,0,0,10.512-6.155c2.326-4.172,2.632-9.133,1.954-13.772-.825-5.64-3.189-10.856-4.767-16.294a83.607,83.607,0,0,1-2.009-9.817,56.944,56.944,0,0,1-1.18-11.332c.106-2.574-3.894-2.569-4,0a52.21,52.21,0,0,0,.879,9.519c.514,3.549,1.115,7.1,1.917,10.6,2,8.708,7.562,17.554,4.744,26.719-1.181,3.837-3.915,6.452-8.05,6.537-2.57.053-2.579,4.053,0,4Z"/><path class="d" d="M106.379,62.2a49.72,49.72,0,0,0,10.8,22.451,2.015,2.015,0,0,0,2.828,0,2.043,2.043,0,0,0,0-2.829,45.68,45.68,0,0,1-9.773-20.686,2.02,2.02,0,0,0-2.46-1.4,2.042,2.042,0,0,0-1.4,2.461Z"/><path class="d" d="M93.224,97.789c.144-1.547.395-3.081.68-4.607.12-.643.244-1.287.394-1.924.041-.177.1-.355.132-.534.079-.464.065.025-.114.181l-.882.514a16.925,16.925,0,0,1,2.734-.293q1.5-.174,3-.4,2.582-.384,5.133-.943a90.443,90.443,0,0,0,9.8-2.76q2.211-.752,4.393-1.584c1.294-.491,2.8-1.058,3.989.018a12.088,12.088,0,0,1,1.708,2.864c.775,1.49,1.5,3,2.291,4.487,1.208,2.274,4.662.255,3.454-2.019-.846-1.593-1.623-3.22-2.463-4.815a12.4,12.4,0,0,0-2.353-3.52c-3.371-3.028-7.384-.93-10.969.328a93.006,93.006,0,0,1-10.914,3.144c-2.038.445-4.095.818-6.163,1.088-1.07.14-2.144.252-3.218.345a3.392,3.392,0,0,0-2.684,1.057,8.172,8.172,0,0,0-1.095,3.543c-.365,1.928-.671,3.874-.853,5.829a2.015,2.015,0,0,0,2,2,2.043,2.043,0,0,0,2-2Z"/><path class="d" d="M126.482,92.809a10.589,10.589,0,0,0,2.662,2.62c.191.141.385.279.576.42.157.115.295.342.036.021a1.564,1.564,0,0,0,.208.171,17.075,17.075,0,0,1,1.29,1.248q.623.651,1.2,1.34.291.343.574.695c.095.117.188.234.281.352.028.035.323.415.177.225s.18.237.173.228q.137.18.271.361.27.361.536.727.558.766,1.107,1.539a2.047,2.047,0,0,0,2.737.718,2.024,2.024,0,0,0,.717-2.737,59.5,59.5,0,0,0-4.7-6.015,18.671,18.671,0,0,0-2.648-2.369c-.192-.141-.386-.28-.578-.421s-.208-.126,0,0a2.591,2.591,0,0,1-.288-.235,7.3,7.3,0,0,1-.553-.517c-.089-.093-.172-.191-.258-.287.227.252.038.05-.066-.1a2,2,0,1,0-3.454,2.019Z"/><path class="e" d="M168.6,190.852q-2.919,6.047-5.93,12.051a2.162,2.162,0,0,1-2.514,1.063c-6.356-1.986-17.14-8.167-22.735-11.833,1.436-3.781,2.9-7.285,4.4-10.653"/><path class="d" d="M132.187,102.489a160.759,160.759,0,0,1,28.628,17.445c4.289,3.311,8.715,6.408,12.876,9.889,2.06,1.723,4.078,3.5,6.018,5.357,1.652,1.583,3.466,3.152,4.429,5.272a14.6,14.6,0,0,1,.464,10.288c-.9,2.572-2.153,5.068-3.243,7.567q-1.848,4.233-3.738,8.448-7.463,16.637-15.593,32.964a7.771,7.771,0,0,1-1.087,2.174c-.193.161-.019.139-.256.144a9.347,9.347,0,0,1-2.9-1.063c-2.249-.923-4.436-2.013-6.592-3.134-4.366-2.27-8.641-4.743-12.761-7.434l.919,2.258c3.626-9.5,8.115-18.611,12.6-27.731q1.706-3.471,3.381-6.956a15.415,15.415,0,0,0,1.488-4.058,7.337,7.337,0,0,0-.6-4.945c-1.138-1.949-3.326-2.521-5.23-3.47-4.842-2.416-9.281-5.544-14.132-7.95-2.3-1.141-4.327,2.308-2.019,3.454,4.041,2,7.788,4.494,11.726,6.68q1.38.767,2.8,1.463a16.079,16.079,0,0,1,3.06,1.439c.784.639.641,1.893.458,2.729a11,11,0,0,1-.416,1.421c-.1.277.149-.332.05-.111s-.218.461-.328.691q-.453.951-.909,1.9-1.566,3.252-3.166,6.487c-2.067,4.2-4.147,8.4-6.126,12.64-2.336,5.009-4.516,10.089-6.486,15.254a2.021,2.021,0,0,0,.919,2.258c3.857,2.519,7.851,4.841,11.922,7,2.146,1.135,4.321,2.223,6.545,3.2,1.874.821,4.454,2.308,6.559,1.94,2.877-.5,3.781-3.712,4.912-6q2.1-4.249,4.164-8.519,4.172-8.649,8.159-17.387,4.037-8.847,7.883-17.779a28.935,28.935,0,0,0,2.386-6.45,21.14,21.14,0,0,0,.1-6.489,15.371,15.371,0,0,0-2.258-6.391,34.206,34.206,0,0,0-5.481-5.8,167.164,167.164,0,0,0-13.515-11.066c-5.184-3.878-10.369-7.763-15.839-11.234a172.459,172.459,0,0,0-17.738-9.85c-2.31-1.109-4.341,2.339-2.019,3.454Z"/></svg>